<ttFont>
    <TTGlyph name="A" xMin="31" yMin="0" xMax="1046" yMax="695">
      <contour>
        <pt x="1046" y="45" on="1"/>
        <pt x="1046" y="0" on="1"/>
        <pt x="803" y="0" on="1"/>
        <pt x="803" y="45" on="1"/>
        <pt x="902" y="45" on="1"/>
        <pt x="902" y="325" on="1"/>
        <pt x="298" y="325" on="1"/>
        <pt x="298" y="45" on="1"/>
        <pt x="397" y="45" on="1"/>
        <pt x="397" y="0" on="1"/>
        <pt x="31" y="0" on="1"/>
        <pt x="31" y="45" on="1"/>
        <pt x="131" y="45" on="1"/>
        <pt x="131" y="650" on="1"/>
        <pt x="31" y="650" on="1"/>
        <pt x="31" y="695" on="1"/>
        <pt x="947" y="695" on="1"/>
        <pt x="947" y="45" on="1"/>
      </contour>
      <contour>
        <pt x="902" y="370" on="1"/>
        <pt x="902" y="650" on="1"/>
        <pt x="298" y="650" on="1"/>
        <pt x="298" y="370" on="1"/>
      </contour>
    </TTGlyph>
    <TTGlyph name="AE" xMin="-5" yMin="0" xMax="1652" yMax="695">
      <contour>
        <pt x="1607" y="510" on="1"/>
        <pt x="1607" y="650" on="1"/>
        <pt x="1002" y="650" on="1"/>
        <pt x="1002" y="370" on="1"/>
        <pt x="1444" y="370" on="1"/>
        <pt x="1444" y="469" on="1"/>
        <pt x="1490" y="469" on="1"/>
        <pt x="1490" y="226" on="1"/>
        <pt x="1444" y="226" on="1"/>
        <pt x="1444" y="325" on="1"/>
        <pt x="1002" y="325" on="1"/>
        <pt x="1002" y="45" on="1"/>
        <pt x="1607" y="45" on="1"/>
        <pt x="1607" y="185" on="1"/>
        <pt x="1652" y="185" on="1"/>
        <pt x="1652" y="0" on="1"/>
        <pt x="736" y="0" on="1"/>
        <pt x="736" y="45" on="1"/>
        <pt x="835" y="45" on="1"/>
        <pt x="835" y="325" on="1"/>
        <pt x="258" y="325" on="1"/>
        <pt x="153" y="45" on="1"/>
        <pt x="239" y="45" on="1"/>
        <pt x="239" y="0" on="1"/>
        <pt x="-5" y="0" on="1"/>
        <pt x="-5" y="45" on="1"/>
        <pt x="103" y="45" on="1"/>
        <pt x="347" y="695" on="1"/>
        <pt x="1652" y="695" on="1"/>
        <pt x="1652" y="510" on="1"/>
      </contour>
      <contour>
        <pt x="835" y="370" on="1"/>
        <pt x="835" y="650" on="1"/>
        <pt x="380" y="650" on="1"/>
        <pt x="275" y="370" on="1"/>
      </contour>
    </TTGlyph>
    <TTGlyph name="Aacute" xMin="31" yMin="0" xMax="1046" yMax="910">
      <component glyphName="A" x="0" y="0" flags="0x1204"/>
      <component glyphName="acute" x="361" y="200" flags="0x1004"/>
    </TTGlyph>
    <TTGlyph name="Acircumflex" xMin="31" yMin="0" xMax="1046" yMax="910">
      <component glyphName="A" x="0" y="0" flags="0x1204"/>
      <component glyphName="circumflex" x="282" y="200" flags="0x1004"/>
    </TTGlyph>
    <TTGlyph name="Adieresis" xMin="31" yMin="0" xMax="1046" yMax="888">
      <component glyphName="A" x="0" y="0" flags="0x1204"/>
      <component glyphName="dieresis" x="246" y="200" flags="0x1004"/>
    </TTGlyph>
    <TTGlyph name="Agrave" xMin="31" yMin="0" xMax="1046" yMax="910">
      <component glyphName="A" x="0" y="0" flags="0x1204"/>
      <component glyphName="grave" x="311" y="200" flags="0x1004"/>
    </TTGlyph>
    <TTGlyph name="Aring" xMin="31" yMin="0" xMax="1046" yMax="922">
      <component glyphName="A" x="0" y="0" flags="0x1204"/>
      <component glyphName="ring" x="276" y="200" flags="0x1004"/>
    </TTGlyph>
    <TTGlyph name="Atilde" xMin="31" yMin="0" xMax="1046" yMax="910">
      <component glyphName="A" x="0" y="0" flags="0x1204"/>
      <component glyphName="tilde" x="198" y="200" flags="0x1004"/>
    </TTGlyph>
    <TTGlyph name="B" xMin="32" yMin="0" xMax="948" yMax="695">
      <contour>
        <pt x="908" y="348" on="1"/>
        <pt x="948" y="317" on="0"/>
        <pt x="948" y="266" on="1"/>
        <pt x="948" y="0" on="1"/>
        <pt x="32" y="0" on="1"/>
        <pt x="32" y="45" on="1"/>
        <pt x="131" y="45" on="1"/>
        <pt x="131" y="650" on="1"/>
        <pt x="32" y="650" on="1"/>
        <pt x="32" y="695" on="1"/>
        <pt x="948" y="695" on="1"/>
        <pt x="948" y="430" on="1"/>
        <pt x="948" y="379" on="0"/>
      </contour>
      <contour>
        <pt x="902" y="266" on="1"/>
        <pt x="902" y="291" on="0"/>
        <pt x="868" y="325" on="0"/>
        <pt x="844" y="325" on="1"/>
        <pt x="298" y="325" on="1"/>
        <pt x="298" y="45" on="1"/>
        <pt x="902" y="45" on="1"/>
      </contour>
      <contour>
        <pt x="902" y="650" on="1"/>
        <pt x="298" y="650" on="1"/>
        <pt x="298" y="371" on="1"/>
        <pt x="844" y="371" on="1"/>
        <pt x="868" y="371" on="0"/>
        <pt x="902" y="405" on="0"/>
        <pt x="902" y="430" on="1"/>
      </contour>
    </TTGlyph>
    <TTGlyph name="C" xMin="32" yMin="0" xMax="900" yMax="695">
      <contour>
        <pt x="855" y="510" on="1"/>
        <pt x="855" y="650" on="1"/>
        <pt x="298" y="650" on="1"/>
        <pt x="298" y="45" on="1"/>
        <pt x="855" y="45" on="1"/>
        <pt x="855" y="185" on="1"/>
        <pt x="900" y="185" on="1"/>
        <pt x="900" y="0" on="1"/>
        <pt x="32" y="0" on="1"/>
        <pt x="32" y="45" on="1"/>
        <pt x="131" y="45" on="1"/>
        <pt x="131" y="650" on="1"/>
        <pt x="32" y="650" on="1"/>
        <pt x="32" y="695" on="1"/>
        <pt x="900" y="695" on="1"/>
        <pt x="900" y="510" on="1"/>
      </contour>
    </TTGlyph>
    <TTGlyph name="Ccedilla" xMin="32" yMin="-183" xMax="900" yMax="695">
      <contour>
        <pt x="855" y="510" on="1"/>
        <pt x="855" y="650" on="1"/>
        <pt x="298" y="650" on="1"/>
        <pt x="298" y="45" on="1"/>
        <pt x="855" y="45" on="1"/>
        <pt x="855" y="185" on="1"/>
        <pt x="900" y="185" on="1"/>
        <pt x="900" y="0" on="1"/>
        <pt x="640" y="0" on="1"/>
        <pt x="545" y="-183" on="1"/>
        <pt x="357" y="-183" on="1"/>
        <pt x="452" y="0" on="1"/>
        <pt x="32" y="0" on="1"/>
        <pt x="32" y="45" on="1"/>
        <pt x="131" y="45" on="1"/>
        <pt x="131" y="650" on="1"/>
        <pt x="32" y="650" on="1"/>
        <pt x="32" y="695" on="1"/>
        <pt x="900" y="695" on="1"/>
        <pt x="900" y="510" on="1"/>
      </contour>
    </TTGlyph>
    <TTGlyph name="D" xMin="32" yMin="0" xMax="948" yMax="695">
      <contour>
        <pt x="804" y="695" on="1"/>
        <pt x="863" y="695" on="0"/>
        <pt x="948" y="610" on="0"/>
        <pt x="948" y="550" on="1"/>
        <pt x="948" y="144" on="1"/>
        <pt x="948" y="85" on="0"/>
        <pt x="863" y="0" on="0"/>
        <pt x="804" y="0" on="1"/>
        <pt x="32" y="0" on="1"/>
        <pt x="32" y="45" on="1"/>
        <pt x="131" y="45" on="1"/>
        <pt x="131" y="650" on="1"/>
        <pt x="32" y="650" on="1"/>
        <pt x="32" y="695" on="1"/>
      </contour>
      <contour>
        <pt x="903" y="550" on="1"/>
        <pt x="903" y="591" on="0"/>
        <pt x="844" y="650" on="0"/>
        <pt x="804" y="650" on="1"/>
        <pt x="298" y="650" on="1"/>
        <pt x="298" y="45" on="1"/>
        <pt x="804" y="45" on="1"/>
        <pt x="844" y="45" on="0"/>
        <pt x="903" y="104" on="0"/>
        <pt x="903" y="144" on="1"/>
      </contour>
    </TTGlyph>
    <TTGlyph name="E" xMin="32" yMin="0" xMax="948" yMax="695">
      <contour>
        <pt x="903" y="510" on="1"/>
        <pt x="903" y="650" on="1"/>
        <pt x="298" y="650" on="1"/>
        <pt x="298" y="370" on="1"/>
        <pt x="740" y="370" on="1"/>
        <pt x="740" y="469" on="1"/>
        <pt x="786" y="469" on="1"/>
        <pt x="786" y="226" on="1"/>
        <pt x="740" y="226" on="1"/>
        <pt x="740" y="325" on="1"/>
        <pt x="298" y="325" on="1"/>
        <pt x="298" y="45" on="1"/>
        <pt x="903" y="45" on="1"/>
        <pt x="903" y="185" on="1"/>
        <pt x="948" y="185" on="1"/>
        <pt x="948" y="0" on="1"/>
        <pt x="32" y="0" on="1"/>
        <pt x="32" y="45" on="1"/>
        <pt x="131" y="45" on="1"/>
        <pt x="131" y="650" on="1"/>
        <pt x="32" y="650" on="1"/>
        <pt x="32" y="695" on="1"/>
        <pt x="948" y="695" on="1"/>
        <pt x="948" y="510" on="1"/>
      </contour>
    </TTGlyph>
    <TTGlyph name="Eacute" xMin="32" yMin="0" xMax="948" yMax="910">
      <component glyphName="E" x="0" y="0" flags="0x1204"/>
      <component glyphName="acute" x="320" y="200" flags="0x1004"/>
    </TTGlyph>
    <TTGlyph name="Ecircumflex" xMin="32" yMin="0" xMax="948" yMax="910">
      <component glyphName="E" x="0" y="0" flags="0x1204"/>
      <component glyphName="circumflex" x="241" y="200" flags="0x1004"/>
    </TTGlyph>
    <TTGlyph name="Edieresis" xMin="32" yMin="0" xMax="948" yMax="888">
      <component glyphName="E" x="0" y="0" flags="0x1204"/>
      <component glyphName="dieresis" x="230" y="200" flags="0x1004"/>
    </TTGlyph>
    <TTGlyph name="Egrave" xMin="32" yMin="0" xMax="948" yMax="910">
      <component glyphName="E" x="0" y="0" flags="0x1204"/>
      <component glyphName="grave" x="270" y="200" flags="0x1004"/>
    </TTGlyph>
    <TTGlyph name="Eth" xMin="33" yMin="0" xMax="949" yMax="695">
      <contour>
        <pt x="805" y="695" on="1"/>
        <pt x="864" y="695" on="0"/>
        <pt x="949" y="610" on="0"/>
        <pt x="949" y="550" on="1"/>
        <pt x="949" y="144" on="1"/>
        <pt x="949" y="85" on="0"/>
        <pt x="864" y="0" on="0"/>
        <pt x="805" y="0" on="1"/>
        <pt x="33" y="0" on="1"/>
        <pt x="33" y="45" on="1"/>
        <pt x="132" y="45" on="1"/>
        <pt x="132" y="325" on="1"/>
        <pt x="33" y="325" on="1"/>
        <pt x="33" y="370" on="1"/>
        <pt x="132" y="370" on="1"/>
        <pt x="132" y="650" on="1"/>
        <pt x="33" y="650" on="1"/>
        <pt x="33" y="695" on="1"/>
      </contour>
      <contour>
        <pt x="904" y="550" on="1"/>
        <pt x="904" y="591" on="0"/>
        <pt x="845" y="650" on="0"/>
        <pt x="805" y="650" on="1"/>
        <pt x="299" y="650" on="1"/>
        <pt x="299" y="370" on="1"/>
        <pt x="521" y="370" on="1"/>
        <pt x="521" y="325" on="1"/>
        <pt x="299" y="325" on="1"/>
        <pt x="299" y="45" on="1"/>
        <pt x="805" y="45" on="1"/>
        <pt x="845" y="45" on="0"/>
        <pt x="904" y="104" on="0"/>
        <pt x="904" y="144" on="1"/>
      </contour>
    </TTGlyph>
    <TTGlyph name="Euro" xMin="55" yMin="0" xMax="923" yMax="695">
      <contour>
        <pt x="878" y="510" on="1"/>
        <pt x="878" y="650" on="1"/>
        <pt x="321" y="650" on="1"/>
        <pt x="321" y="431" on="1"/>
        <pt x="545" y="431" on="1"/>
        <pt x="545" y="386" on="1"/>
        <pt x="321" y="386" on="1"/>
        <pt x="321" y="310" on="1"/>
        <pt x="545" y="310" on="1"/>
        <pt x="545" y="265" on="1"/>
        <pt x="321" y="265" on="1"/>
        <pt x="321" y="45" on="1"/>
        <pt x="878" y="45" on="1"/>
        <pt x="878" y="185" on="1"/>
        <pt x="923" y="185" on="1"/>
        <pt x="923" y="0" on="1"/>
        <pt x="55" y="0" on="1"/>
        <pt x="55" y="45" on="1"/>
        <pt x="154" y="45" on="1"/>
        <pt x="154" y="265" on="1"/>
        <pt x="55" y="265" on="1"/>
        <pt x="55" y="310" on="1"/>
        <pt x="154" y="310" on="1"/>
        <pt x="154" y="386" on="1"/>
        <pt x="55" y="386" on="1"/>
        <pt x="55" y="431" on="1"/>
        <pt x="154" y="431" on="1"/>
        <pt x="154" y="650" on="1"/>
        <pt x="55" y="650" on="1"/>
        <pt x="55" y="695" on="1"/>
        <pt x="923" y="695" on="1"/>
        <pt x="923" y="510" on="1"/>
      </contour>
    </TTGlyph>
    <TTGlyph name="F" xMin="32" yMin="0" xMax="922" yMax="695">
      <contour>
        <pt x="922" y="695" on="1"/>
        <pt x="922" y="510" on="1"/>
        <pt x="877" y="510" on="1"/>
        <pt x="877" y="650" on="1"/>
        <pt x="298" y="650" on="1"/>
        <pt x="298" y="370" on="1"/>
        <pt x="714" y="370" on="1"/>
        <pt x="714" y="469" on="1"/>
        <pt x="759" y="469" on="1"/>
        <pt x="759" y="226" on="1"/>
        <pt x="714" y="226" on="1"/>
        <pt x="714" y="325" on="1"/>
        <pt x="298" y="325" on="1"/>
        <pt x="298" y="45" on="1"/>
        <pt x="397" y="45" on="1"/>
        <pt x="397" y="0" on="1"/>
        <pt x="32" y="0" on="1"/>
        <pt x="32" y="45" on="1"/>
        <pt x="131" y="45" on="1"/>
        <pt x="131" y="650" on="1"/>
        <pt x="32" y="650" on="1"/>
        <pt x="32" y="695" on="1"/>
      </contour>
    </TTGlyph>
    <TTGlyph name="G" xMin="31" yMin="0" xMax="947" yMax="695">
      <contour>
        <pt x="902" y="510" on="1"/>
        <pt x="902" y="650" on="1"/>
        <pt x="298" y="650" on="1"/>
        <pt x="298" y="45" on="1"/>
        <pt x="902" y="45" on="1"/>
        <pt x="902" y="325" on="1"/>
        <pt x="519" y="325" on="1"/>
        <pt x="519" y="370" on="1"/>
        <pt x="947" y="370" on="1"/>
        <pt x="947" y="0" on="1"/>
        <pt x="31" y="0" on="1"/>
        <pt x="31" y="45" on="1"/>
        <pt x="131" y="45" on="1"/>
        <pt x="131" y="650" on="1"/>
        <pt x="31" y="650" on="1"/>
        <pt x="31" y="695" on="1"/>
        <pt x="947" y="695" on="1"/>
        <pt x="947" y="510" on="1"/>
      </contour>
    </TTGlyph>
    <TTGlyph name="H" xMin="31" yMin="0" xMax="1046" yMax="695">
      <contour>
        <pt x="947" y="650" on="1"/>
        <pt x="947" y="45" on="1"/>
        <pt x="1046" y="45" on="1"/>
        <pt x="1046" y="0" on="1"/>
        <pt x="803" y="0" on="1"/>
        <pt x="803" y="45" on="1"/>
        <pt x="902" y="45" on="1"/>
        <pt x="902" y="325" on="1"/>
        <pt x="297" y="325" on="1"/>
        <pt x="297" y="45" on="1"/>
        <pt x="397" y="45" on="1"/>
        <pt x="397" y="0" on="1"/>
        <pt x="31" y="0" on="1"/>
        <pt x="31" y="45" on="1"/>
        <pt x="131" y="45" on="1"/>
        <pt x="131" y="650" on="1"/>
        <pt x="31" y="650" on="1"/>
        <pt x="31" y="695" on="1"/>
        <pt x="397" y="695" on="1"/>
        <pt x="397" y="650" on="1"/>
        <pt x="297" y="650" on="1"/>
        <pt x="297" y="370" on="1"/>
        <pt x="902" y="370" on="1"/>
        <pt x="902" y="650" on="1"/>
        <pt x="803" y="650" on="1"/>
        <pt x="803" y="695" on="1"/>
        <pt x="1046" y="695" on="1"/>
        <pt x="1046" y="650" on="1"/>
      </contour>
    </TTGlyph>
    <TTGlyph name="I" xMin="19" yMin="0" xMax="546" yMax="695">
      <contour>
        <pt x="366" y="650" on="1"/>
        <pt x="366" y="45" on="1"/>
        <pt x="546" y="45" on="1"/>
        <pt x="546" y="0" on="1"/>
        <pt x="19" y="0" on="1"/>
        <pt x="19" y="45" on="1"/>
        <pt x="199" y="45" on="1"/>
        <pt x="199" y="650" on="1"/>
        <pt x="19" y="650" on="1"/>
        <pt x="19" y="695" on="1"/>
        <pt x="546" y="695" on="1"/>
        <pt x="546" y="650" on="1"/>
      </contour>
    </TTGlyph>
    <TTGlyph name="Iacute" xMin="19" yMin="0" xMax="546" yMax="910">
      <component glyphName="I" x="0" y="0" flags="0x1204"/>
      <component glyphName="acute" x="86" y="200" flags="0x1004"/>
    </TTGlyph>
    <TTGlyph name="Icircumflex" xMin="19" yMin="0" xMax="546" yMax="910">
      <component glyphName="I" x="0" y="0" flags="0x1204"/>
      <component glyphName="circumflex" x="17" y="200" flags="0x1004"/>
    </TTGlyph>
    <TTGlyph name="Idieresis" xMin="19" yMin="0" xMax="546" yMax="888">
      <component glyphName="I" x="0" y="0" flags="0x1204"/>
      <component glyphName="dieresis" x="-10" y="200" flags="0x1004"/>
    </TTGlyph>
    <TTGlyph name="Igrave" xMin="19" yMin="0" xMax="546" yMax="910">
      <component glyphName="I" x="0" y="0" flags="0x1204"/>
      <component glyphName="grave" x="24" y="200" flags="0x1004"/>
    </TTGlyph>
    <TTGlyph name="J" xMin="21" yMin="0" xMax="857" yMax="695">
      <contour>
        <pt x="758" y="650" on="1"/>
        <pt x="758" y="45" on="1"/>
        <pt x="857" y="45" on="1"/>
        <pt x="857" y="0" on="1"/>
        <pt x="21" y="0" on="1"/>
        <pt x="21" y="185" on="1"/>
        <pt x="66" y="185" on="1"/>
        <pt x="66" y="45" on="1"/>
        <pt x="591" y="45" on="1"/>
        <pt x="591" y="650" on="1"/>
        <pt x="491" y="650" on="1"/>
        <pt x="491" y="695" on="1"/>
        <pt x="857" y="695" on="1"/>
        <pt x="857" y="650" on="1"/>
      </contour>
    </TTGlyph>
    <TTGlyph name="K" xMin="32" yMin="0" xMax="1007" yMax="695">
      <contour>
        <pt x="896" y="45" on="1"/>
        <pt x="1007" y="45" on="1"/>
        <pt x="1007" y="0" on="1"/>
        <pt x="763" y="0" on="1"/>
        <pt x="763" y="45" on="1"/>
        <pt x="840" y="45" on="1"/>
        <pt x="630" y="325" on="1"/>
        <pt x="298" y="325" on="1"/>
        <pt x="298" y="45" on="1"/>
        <pt x="398" y="45" on="1"/>
        <pt x="398" y="0" on="1"/>
        <pt x="32" y="0" on="1"/>
        <pt x="32" y="45" on="1"/>
        <pt x="131" y="45" on="1"/>
        <pt x="131" y="650" on="1"/>
        <pt x="32" y="650" on="1"/>
        <pt x="32" y="695" on="1"/>
        <pt x="398" y="695" on="1"/>
        <pt x="398" y="650" on="1"/>
        <pt x="298" y="650" on="1"/>
        <pt x="298" y="370" on="1"/>
        <pt x="629" y="370" on="1"/>
        <pt x="803" y="650" on="1"/>
        <pt x="722" y="650" on="1"/>
        <pt x="722" y="695" on="1"/>
        <pt x="966" y="695" on="1"/>
        <pt x="966" y="650" on="1"/>
        <pt x="857" y="650" on="1"/>
        <pt x="669" y="349" on="1"/>
      </contour>
    </TTGlyph>
    <TTGlyph name="L" xMin="31" yMin="0" xMax="897" yMax="695">
      <contour>
        <pt x="897" y="185" on="1"/>
        <pt x="897" y="0" on="1"/>
        <pt x="31" y="0" on="1"/>
        <pt x="31" y="45" on="1"/>
        <pt x="131" y="45" on="1"/>
        <pt x="131" y="650" on="1"/>
        <pt x="31" y="650" on="1"/>
        <pt x="31" y="695" on="1"/>
        <pt x="397" y="695" on="1"/>
        <pt x="397" y="650" on="1"/>
        <pt x="298" y="650" on="1"/>
        <pt x="298" y="45" on="1"/>
        <pt x="852" y="45" on="1"/>
        <pt x="852" y="185" on="1"/>
      </contour>
    </TTGlyph>
    <TTGlyph name="M" xMin="31" yMin="-23" xMax="1249" yMax="695">
      <contour>
        <pt x="1150" y="650" on="1"/>
        <pt x="1150" y="45" on="1"/>
        <pt x="1249" y="45" on="1"/>
        <pt x="1249" y="0" on="1"/>
        <pt x="884" y="0" on="1"/>
        <pt x="884" y="45" on="1"/>
        <pt x="983" y="45" on="1"/>
        <pt x="983" y="586" on="1"/>
        <pt x="640" y="-23" on="1"/>
        <pt x="298" y="586" on="1"/>
        <pt x="298" y="45" on="1"/>
        <pt x="397" y="45" on="1"/>
        <pt x="397" y="0" on="1"/>
        <pt x="31" y="0" on="1"/>
        <pt x="31" y="45" on="1"/>
        <pt x="131" y="45" on="1"/>
        <pt x="131" y="650" on="1"/>
        <pt x="31" y="650" on="1"/>
        <pt x="31" y="695" on="1"/>
        <pt x="288" y="695" on="1"/>
        <pt x="640" y="69" on="1"/>
        <pt x="993" y="695" on="1"/>
        <pt x="1249" y="695" on="1"/>
        <pt x="1249" y="650" on="1"/>
      </contour>
    </TTGlyph>
    <TTGlyph name="N" xMin="32" yMin="0" xMax="1087" yMax="695">
      <contour>
        <pt x="988" y="650" on="1"/>
        <pt x="988" y="45" on="1"/>
        <pt x="1087" y="45" on="1"/>
        <pt x="1087" y="0" on="1"/>
        <pt x="834" y="0" on="1"/>
        <pt x="298" y="612" on="1"/>
        <pt x="298" y="45" on="1"/>
        <pt x="397" y="45" on="1"/>
        <pt x="397" y="0" on="1"/>
        <pt x="32" y="0" on="1"/>
        <pt x="32" y="45" on="1"/>
        <pt x="131" y="45" on="1"/>
        <pt x="131" y="650" on="1"/>
        <pt x="32" y="650" on="1"/>
        <pt x="32" y="695" on="1"/>
        <pt x="286" y="695" on="1"/>
        <pt x="821" y="83" on="1"/>
        <pt x="821" y="650" on="1"/>
        <pt x="722" y="650" on="1"/>
        <pt x="722" y="695" on="1"/>
        <pt x="1087" y="695" on="1"/>
        <pt x="1087" y="650" on="1"/>
      </contour>
    </TTGlyph>
    <TTGlyph name="Ntilde" xMin="32" yMin="0" xMax="1087" yMax="910">
      <component glyphName="N" x="0" y="0" flags="0x1204"/>
      <component glyphName="tilde" x="196" y="200" flags="0x1004"/>
    </TTGlyph>
    <TTGlyph name="O" xMin="66" yMin="0" xMax="882" yMax="695">
      <contour>
        <pt x="882" y="695" on="1"/>
        <pt x="882" y="0" on="1"/>
        <pt x="66" y="0" on="1"/>
        <pt x="66" y="695" on="1"/>
      </contour>
      <contour>
        <pt x="837" y="650" on="1"/>
        <pt x="233" y="650" on="1"/>
        <pt x="233" y="45" on="1"/>
        <pt x="837" y="45" on="1"/>
      </contour>
    </TTGlyph>
    <TTGlyph name="OE" xMin="66" yMin="0" xMax="1654" yMax="695">
      <contour>
        <pt x="1609" y="510" on="1"/>
        <pt x="1609" y="650" on="1"/>
        <pt x="1004" y="650" on="1"/>
        <pt x="1004" y="370" on="1"/>
        <pt x="1446" y="370" on="1"/>
        <pt x="1446" y="469" on="1"/>
        <pt x="1492" y="469" on="1"/>
        <pt x="1492" y="226" on="1"/>
        <pt x="1446" y="226" on="1"/>
        <pt x="1446" y="325" on="1"/>
        <pt x="1004" y="325" on="1"/>
        <pt x="1004" y="45" on="1"/>
        <pt x="1609" y="45" on="1"/>
        <pt x="1609" y="185" on="1"/>
        <pt x="1654" y="185" on="1"/>
        <pt x="1654" y="0" on="1"/>
        <pt x="66" y="0" on="1"/>
        <pt x="66" y="695" on="1"/>
        <pt x="1654" y="695" on="1"/>
        <pt x="1654" y="510" on="1"/>
      </contour>
      <contour>
        <pt x="233" y="45" on="1"/>
        <pt x="837" y="45" on="1"/>
        <pt x="837" y="650" on="1"/>
        <pt x="233" y="650" on="1"/>
      </contour>
    </TTGlyph>
    <TTGlyph name="Oacute" xMin="66" yMin="0" xMax="882" yMax="910">
      <component glyphName="O" x="0" y="0" flags="0x1004"/>
      <component glyphName="acute" x="288" y="200" flags="0x1004"/>
    </TTGlyph>
    <TTGlyph name="Ocircumflex" xMin="66" yMin="0" xMax="882" yMax="910">
      <component glyphName="O" x="0" y="0" flags="0x1004"/>
      <component glyphName="circumflex" x="232" y="200" flags="0x1004"/>
    </TTGlyph>
    <TTGlyph name="Odieresis" xMin="66" yMin="0" xMax="882" yMax="888">
      <component glyphName="O" x="0" y="0" flags="0x1004"/>
      <component glyphName="dieresis" x="195" y="200" flags="0x1004"/>
    </TTGlyph>
    <TTGlyph name="Ograve" xMin="66" yMin="0" xMax="882" yMax="910">
      <component glyphName="O" x="0" y="0" flags="0x1004"/>
      <component glyphName="grave" x="244" y="200" flags="0x1004"/>
    </TTGlyph>
    <TTGlyph name="Oslash" xMin="62" yMin="-129" xMax="970" yMax="775">
      <contour>
        <pt x="882" y="0" on="1"/>
        <pt x="224" y="0" on="1"/>
        <pt x="94" y="-129" on="1"/>
        <pt x="62" y="-97" on="1"/>
        <pt x="160" y="0" on="1"/>
        <pt x="66" y="0" on="1"/>
        <pt x="66" y="695" on="1"/>
        <pt x="858" y="695" on="1"/>
        <pt x="939" y="775" on="1"/>
        <pt x="970" y="743" on="1"/>
        <pt x="882" y="655" on="1"/>
      </contour>
      <contour>
        <pt x="233" y="73" on="1"/>
        <pt x="813" y="650" on="1"/>
        <pt x="233" y="650" on="1"/>
      </contour>
      <contour>
        <pt x="837" y="45" on="1"/>
        <pt x="837" y="611" on="1"/>
        <pt x="269" y="45" on="1"/>
      </contour>
    </TTGlyph>
    <TTGlyph name="Otilde" xMin="66" yMin="0" xMax="882" yMax="910">
      <component glyphName="O" x="0" y="0" flags="0x1004"/>
      <component glyphName="tilde" x="140" y="200" flags="0x1004"/>
    </TTGlyph>
    <TTGlyph name="P" xMin="32" yMin="0" xMax="917" yMax="695">
      <contour>
        <pt x="298" y="325" on="1"/>
        <pt x="298" y="45" on="1"/>
        <pt x="398" y="45" on="1"/>
        <pt x="398" y="0" on="1"/>
        <pt x="32" y="0" on="1"/>
        <pt x="32" y="45" on="1"/>
        <pt x="131" y="45" on="1"/>
        <pt x="131" y="650" on="1"/>
        <pt x="32" y="650" on="1"/>
        <pt x="32" y="695" on="1"/>
        <pt x="917" y="695" on="1"/>
        <pt x="917" y="325" on="1"/>
      </contour>
      <contour>
        <pt x="298" y="650" on="1"/>
        <pt x="298" y="370" on="1"/>
        <pt x="872" y="370" on="1"/>
        <pt x="872" y="650" on="1"/>
      </contour>
    </TTGlyph>
    <TTGlyph name="Q" xMin="66" yMin="-118" xMax="882" yMax="695">
      <contour>
        <pt x="882" y="0" on="1"/>
        <pt x="711" y="0" on="1"/>
        <pt x="832" y="-80" on="1"/>
        <pt x="806" y="-118" on="1"/>
        <pt x="629" y="0" on="1"/>
        <pt x="66" y="0" on="1"/>
        <pt x="66" y="695" on="1"/>
        <pt x="882" y="695" on="1"/>
      </contour>
      <contour>
        <pt x="837" y="650" on="1"/>
        <pt x="232" y="650" on="1"/>
        <pt x="232" y="45" on="1"/>
        <pt x="562" y="45" on="1"/>
        <pt x="441" y="126" on="1"/>
        <pt x="466" y="163" on="1"/>
        <pt x="643" y="45" on="1"/>
        <pt x="837" y="45" on="1"/>
      </contour>
    </TTGlyph>
    <TTGlyph name="R" xMin="32" yMin="0" xMax="1047" yMax="695">
      <contour>
        <pt x="908" y="348" on="1"/>
        <pt x="948" y="317" on="0"/>
        <pt x="948" y="266" on="1"/>
        <pt x="948" y="45" on="1"/>
        <pt x="1047" y="45" on="1"/>
        <pt x="1047" y="0" on="1"/>
        <pt x="804" y="0" on="1"/>
        <pt x="804" y="45" on="1"/>
        <pt x="902" y="45" on="1"/>
        <pt x="902" y="266" on="1"/>
        <pt x="902" y="291" on="0"/>
        <pt x="868" y="325" on="0"/>
        <pt x="844" y="325" on="1"/>
        <pt x="298" y="325" on="1"/>
        <pt x="298" y="45" on="1"/>
        <pt x="398" y="45" on="1"/>
        <pt x="398" y="0" on="1"/>
        <pt x="32" y="0" on="1"/>
        <pt x="32" y="45" on="1"/>
        <pt x="131" y="45" on="1"/>
        <pt x="131" y="650" on="1"/>
        <pt x="32" y="650" on="1"/>
        <pt x="32" y="695" on="1"/>
        <pt x="948" y="695" on="1"/>
        <pt x="948" y="430" on="1"/>
        <pt x="948" y="379" on="0"/>
      </contour>
      <contour>
        <pt x="902" y="650" on="1"/>
        <pt x="298" y="650" on="1"/>
        <pt x="298" y="371" on="1"/>
        <pt x="844" y="371" on="1"/>
        <pt x="868" y="371" on="0"/>
        <pt x="902" y="405" on="0"/>
        <pt x="902" y="430" on="1"/>
      </contour>
    </TTGlyph>
    <TTGlyph name="S" xMin="62" yMin="0" xMax="878" yMax="695">
      <contour>
        <pt x="878" y="695" on="1"/>
        <pt x="878" y="510" on="1"/>
        <pt x="833" y="510" on="1"/>
        <pt x="833" y="650" on="1"/>
        <pt x="229" y="650" on="1"/>
        <pt x="229" y="370" on="1"/>
        <pt x="878" y="370" on="1"/>
        <pt x="878" y="0" on="1"/>
        <pt x="62" y="0" on="1"/>
        <pt x="62" y="185" on="1"/>
        <pt x="107" y="185" on="1"/>
        <pt x="107" y="45" on="1"/>
        <pt x="711" y="45" on="1"/>
        <pt x="711" y="325" on="1"/>
        <pt x="62" y="325" on="1"/>
        <pt x="62" y="695" on="1"/>
      </contour>
    </TTGlyph>
    <TTGlyph name="Scaron" xMin="62" yMin="0" xMax="878" yMax="905">
      <contour>
        <pt x="301" y="905" on="1"/>
        <pt x="357" y="905" on="1"/>
        <pt x="424" y="810" on="1"/>
        <pt x="515" y="905" on="1"/>
        <pt x="682" y="905" on="1"/>
        <pt x="558" y="741" on="1"/>
        <pt x="418" y="741" on="1"/>
      </contour>
      <contour>
        <pt x="465" y="786" on="1"/>
        <pt x="536" y="786" on="1"/>
        <pt x="592" y="860" on="1"/>
        <pt x="538" y="860" on="1"/>
      </contour>
      <contour>
        <pt x="878" y="695" on="1"/>
        <pt x="878" y="510" on="1"/>
        <pt x="833" y="510" on="1"/>
        <pt x="833" y="650" on="1"/>
        <pt x="229" y="650" on="1"/>
        <pt x="229" y="370" on="1"/>
        <pt x="878" y="370" on="1"/>
        <pt x="878" y="0" on="1"/>
        <pt x="62" y="0" on="1"/>
        <pt x="62" y="185" on="1"/>
        <pt x="107" y="185" on="1"/>
        <pt x="107" y="45" on="1"/>
        <pt x="711" y="45" on="1"/>
        <pt x="711" y="325" on="1"/>
        <pt x="62" y="325" on="1"/>
        <pt x="62" y="695" on="1"/>
      </contour>
    </TTGlyph>
    <TTGlyph name="T" xMin="19" yMin="0" xMax="952" yMax="695">
      <contour>
        <pt x="952" y="695" on="1"/>
        <pt x="952" y="510" on="1"/>
        <pt x="907" y="510" on="1"/>
        <pt x="907" y="650" on="1"/>
        <pt x="569" y="650" on="1"/>
        <pt x="569" y="45" on="1"/>
        <pt x="669" y="45" on="1"/>
        <pt x="669" y="0" on="1"/>
        <pt x="303" y="0" on="1"/>
        <pt x="303" y="45" on="1"/>
        <pt x="402" y="45" on="1"/>
        <pt x="402" y="650" on="1"/>
        <pt x="64" y="650" on="1"/>
        <pt x="64" y="510" on="1"/>
        <pt x="19" y="510" on="1"/>
        <pt x="19" y="695" on="1"/>
      </contour>
    </TTGlyph>
    <TTGlyph name="Thorn" xMin="32" yMin="0" xMax="917" yMax="695">
      <contour>
        <pt x="298" y="176" on="1"/>
        <pt x="298" y="45" on="1"/>
        <pt x="398" y="45" on="1"/>
        <pt x="398" y="0" on="1"/>
        <pt x="32" y="0" on="1"/>
        <pt x="32" y="45" on="1"/>
        <pt x="131" y="45" on="1"/>
        <pt x="131" y="650" on="1"/>
        <pt x="32" y="650" on="1"/>
        <pt x="32" y="695" on="1"/>
        <pt x="397" y="695" on="1"/>
        <pt x="397" y="650" on="1"/>
        <pt x="298" y="650" on="1"/>
        <pt x="298" y="546" on="1"/>
        <pt x="917" y="546" on="1"/>
        <pt x="917" y="176" on="1"/>
      </contour>
      <contour>
        <pt x="298" y="221" on="1"/>
        <pt x="872" y="221" on="1"/>
        <pt x="872" y="501" on="1"/>
        <pt x="298" y="501" on="1"/>
      </contour>
    </TTGlyph>
    <TTGlyph name="U" xMin="32" yMin="0" xMax="1047" yMax="695">
      <contour>
        <pt x="1047" y="650" on="1"/>
        <pt x="948" y="650" on="1"/>
        <pt x="948" y="0" on="1"/>
        <pt x="32" y="0" on="1"/>
        <pt x="32" y="45" on="1"/>
        <pt x="131" y="45" on="1"/>
        <pt x="131" y="650" on="1"/>
        <pt x="32" y="650" on="1"/>
        <pt x="32" y="695" on="1"/>
        <pt x="397" y="695" on="1"/>
        <pt x="397" y="650" on="1"/>
        <pt x="298" y="650" on="1"/>
        <pt x="298" y="45" on="1"/>
        <pt x="903" y="45" on="1"/>
        <pt x="903" y="650" on="1"/>
        <pt x="803" y="650" on="1"/>
        <pt x="803" y="695" on="1"/>
        <pt x="1047" y="695" on="1"/>
      </contour>
    </TTGlyph>
    <TTGlyph name="Uacute" xMin="32" yMin="0" xMax="1047" yMax="910">
      <component glyphName="U" x="0" y="0" flags="0x1204"/>
      <component glyphName="acute" x="366" y="200" flags="0x1004"/>
    </TTGlyph>
    <TTGlyph name="Ucircumflex" xMin="32" yMin="0" xMax="1047" yMax="910">
      <component glyphName="U" x="0" y="0" flags="0x1204"/>
      <component glyphName="circumflex" x="297" y="200" flags="0x1004"/>
    </TTGlyph>
    <TTGlyph name="Udieresis" xMin="32" yMin="0" xMax="1047" yMax="888">
      <component glyphName="U" x="0" y="0" flags="0x1204"/>
      <component glyphName="dieresis" x="259" y="200" flags="0x1004"/>
    </TTGlyph>
    <TTGlyph name="Ugrave" xMin="32" yMin="0" xMax="1047" yMax="910">
      <component glyphName="U" x="0" y="0" flags="0x1204"/>
      <component glyphName="grave" x="312" y="200" flags="0x1004"/>
    </TTGlyph>
    <TTGlyph name="V" xMin="32" yMin="0" xMax="1047" yMax="695">
      <contour>
        <pt x="803" y="695" on="1"/>
        <pt x="1047" y="695" on="1"/>
        <pt x="1047" y="650" on="1"/>
        <pt x="939" y="650" on="1"/>
        <pt x="695" y="0" on="1"/>
        <pt x="32" y="0" on="1"/>
        <pt x="32" y="45" on="1"/>
        <pt x="131" y="45" on="1"/>
        <pt x="131" y="650" on="1"/>
        <pt x="32" y="650" on="1"/>
        <pt x="32" y="695" on="1"/>
        <pt x="397" y="695" on="1"/>
        <pt x="397" y="650" on="1"/>
        <pt x="298" y="650" on="1"/>
        <pt x="298" y="45" on="1"/>
        <pt x="662" y="45" on="1"/>
        <pt x="889" y="650" on="1"/>
        <pt x="803" y="650" on="1"/>
      </contour>
    </TTGlyph>
    <TTGlyph name="W" xMin="32" yMin="0" xMax="1331" yMax="695">
      <contour>
        <pt x="1232" y="650" on="1"/>
        <pt x="1232" y="45" on="1"/>
        <pt x="1331" y="45" on="1"/>
        <pt x="1331" y="0" on="1"/>
        <pt x="32" y="0" on="1"/>
        <pt x="32" y="45" on="1"/>
        <pt x="131" y="45" on="1"/>
        <pt x="131" y="650" on="1"/>
        <pt x="32" y="650" on="1"/>
        <pt x="32" y="695" on="1"/>
        <pt x="398" y="695" on="1"/>
        <pt x="398" y="650" on="1"/>
        <pt x="298" y="650" on="1"/>
        <pt x="298" y="45" on="1"/>
        <pt x="659" y="45" on="1"/>
        <pt x="659" y="650" on="1"/>
        <pt x="560" y="650" on="1"/>
        <pt x="560" y="695" on="1"/>
        <pt x="803" y="695" on="1"/>
        <pt x="803" y="650" on="1"/>
        <pt x="704" y="650" on="1"/>
        <pt x="704" y="45" on="1"/>
        <pt x="1065" y="45" on="1"/>
        <pt x="1065" y="650" on="1"/>
        <pt x="966" y="650" on="1"/>
        <pt x="966" y="695" on="1"/>
        <pt x="1331" y="695" on="1"/>
        <pt x="1331" y="650" on="1"/>
      </contour>
    </TTGlyph>
    <TTGlyph name="X" xMin="7" yMin="0" xMax="948" yMax="695">
      <contour>
        <pt x="841" y="45" on="1"/>
        <pt x="948" y="45" on="1"/>
        <pt x="948" y="0" on="1"/>
        <pt x="542" y="0" on="1"/>
        <pt x="542" y="45" on="1"/>
        <pt x="621" y="45" on="1"/>
        <pt x="404" y="300" on="1"/>
        <pt x="172" y="45" on="1"/>
        <pt x="250" y="45" on="1"/>
        <pt x="250" y="0" on="1"/>
        <pt x="7" y="0" on="1"/>
        <pt x="7" y="45" on="1"/>
        <pt x="107" y="45" on="1"/>
        <pt x="374" y="334" on="1"/>
        <pt x="105" y="650" on="1"/>
        <pt x="14" y="650" on="1"/>
        <pt x="14" y="695" on="1"/>
        <pt x="420" y="695" on="1"/>
        <pt x="420" y="650" on="1"/>
        <pt x="324" y="650" on="1"/>
        <pt x="538" y="399" on="1"/>
        <pt x="763" y="650" on="1"/>
        <pt x="694" y="650" on="1"/>
        <pt x="694" y="695" on="1"/>
        <pt x="938" y="695" on="1"/>
        <pt x="938" y="650" on="1"/>
        <pt x="827" y="650" on="1"/>
        <pt x="567" y="365" on="1"/>
      </contour>
    </TTGlyph>
    <TTGlyph name="Y" xMin="-5" yMin="0" xMax="929" yMax="695">
      <contour>
        <pt x="686" y="695" on="1"/>
        <pt x="929" y="695" on="1"/>
        <pt x="929" y="650" on="1"/>
        <pt x="818" y="650" on="1"/>
        <pt x="546" y="339" on="1"/>
        <pt x="546" y="45" on="1"/>
        <pt x="645" y="45" on="1"/>
        <pt x="645" y="0" on="1"/>
        <pt x="280" y="0" on="1"/>
        <pt x="280" y="45" on="1"/>
        <pt x="379" y="45" on="1"/>
        <pt x="379" y="339" on="1"/>
        <pt x="107" y="650" on="1"/>
        <pt x="-5" y="650" on="1"/>
        <pt x="-5" y="695" on="1"/>
        <pt x="239" y="695" on="1"/>
        <pt x="239" y="650" on="1"/>
        <pt x="167" y="650" on="1"/>
        <pt x="412" y="370" on="1"/>
        <pt x="513" y="370" on="1"/>
        <pt x="758" y="650" on="1"/>
        <pt x="686" y="650" on="1"/>
      </contour>
    </TTGlyph>
    <TTGlyph name="Yacute" xMin="-5" yMin="0" xMax="929" yMax="910">
      <component glyphName="Y" x="0" y="0" flags="0x1204"/>
      <component glyphName="acute" x="279" y="200" flags="0x1004"/>
    </TTGlyph>
    <TTGlyph name="Ydieresis" xMin="-5" yMin="0" xMax="929" yMax="888">
      <component glyphName="Y" x="0" y="0" flags="0x1204"/>
      <component glyphName="dieresis" x="169" y="200" flags="0x1004"/>
    </TTGlyph>
    <TTGlyph name="Z" xMin="25" yMin="0" xMax="877" yMax="695">
      <contour>
        <pt x="863" y="185" on="1"/>
        <pt x="863" y="0" on="1"/>
        <pt x="25" y="0" on="1"/>
        <pt x="612" y="650" on="1"/>
        <pt x="84" y="650" on="1"/>
        <pt x="84" y="510" on="1"/>
        <pt x="39" y="510" on="1"/>
        <pt x="39" y="695" on="1"/>
        <pt x="877" y="695" on="1"/>
        <pt x="291" y="45" on="1"/>
        <pt x="818" y="45" on="1"/>
        <pt x="818" y="185" on="1"/>
      </contour>
    </TTGlyph>
    <TTGlyph name="Zcaron" xMin="25" yMin="0" xMax="877" yMax="910">
      <contour>
        <pt x="251" y="910" on="1"/>
        <pt x="307" y="910" on="1"/>
        <pt x="374" y="815" on="1"/>
        <pt x="465" y="910" on="1"/>
        <pt x="632" y="910" on="1"/>
        <pt x="508" y="746" on="1"/>
        <pt x="368" y="746" on="1"/>
      </contour>
      <contour>
        <pt x="863" y="185" on="1"/>
        <pt x="863" y="0" on="1"/>
        <pt x="25" y="0" on="1"/>
        <pt x="612" y="650" on="1"/>
        <pt x="84" y="650" on="1"/>
        <pt x="84" y="510" on="1"/>
        <pt x="39" y="510" on="1"/>
        <pt x="39" y="695" on="1"/>
        <pt x="877" y="695" on="1"/>
        <pt x="291" y="45" on="1"/>
        <pt x="818" y="45" on="1"/>
        <pt x="818" y="185" on="1"/>
      </contour>
    </TTGlyph>
    <TTGlyph name="a" xMin="55" yMin="0" xMax="778" yMax="469">
      <contour>
        <pt x="679" y="45" on="1"/>
        <pt x="778" y="45" on="1"/>
        <pt x="778" y="0" on="1"/>
        <pt x="55" y="0" on="1"/>
        <pt x="55" y="257" on="1"/>
        <pt x="512" y="257" on="1"/>
        <pt x="512" y="424" on="1"/>
        <pt x="100" y="424" on="1"/>
        <pt x="100" y="347" on="1"/>
        <pt x="55" y="347" on="1"/>
        <pt x="55" y="469" on="1"/>
        <pt x="679" y="469" on="1"/>
      </contour>
      <contour>
        <pt x="512" y="45" on="1"/>
        <pt x="512" y="212" on="1"/>
        <pt x="100" y="212" on="1"/>
        <pt x="100" y="45" on="1"/>
      </contour>
    </TTGlyph>
    <TTGlyph name="aacute" xMin="55" yMin="0" xMax="778" yMax="710">
      <component glyphName="a" x="0" y="0" flags="0x1204"/>
      <component glyphName="acute" x="153" y="0" flags="0x1004"/>
    </TTGlyph>
    <TTGlyph name="acircumflex" xMin="55" yMin="0" xMax="778" yMax="710">
      <component glyphName="a" x="0" y="0" flags="0x1204"/>
      <component glyphName="circumflex" x="120" y="0" flags="0x1004"/>
    </TTGlyph>
    <TTGlyph name="acute" xMin="66" yMin="546" xMax="389" yMax="710">
      <contour>
        <pt x="389" y="710" on="1"/>
        <pt x="233" y="546" on="1"/>
        <pt x="66" y="546" on="1"/>
        <pt x="190" y="710" on="1"/>
      </contour>
    </TTGlyph>
    <TTGlyph name="adieresis" xMin="55" yMin="0" xMax="778" yMax="688">
      <component glyphName="a" x="0" y="0" flags="0x1204"/>
      <component glyphName="dieresis" x="80" y="0" flags="0x1004"/>
    </TTGlyph>
    <TTGlyph name="ae" xMin="55" yMin="0" xMax="1136" yMax="469">
      <contour>
        <pt x="55" y="257" on="1"/>
        <pt x="512" y="257" on="1"/>
        <pt x="512" y="424" on="1"/>
        <pt x="100" y="424" on="1"/>
        <pt x="100" y="347" on="1"/>
        <pt x="55" y="347" on="1"/>
        <pt x="55" y="469" on="1"/>
        <pt x="1136" y="469" on="1"/>
        <pt x="1136" y="212" on="1"/>
        <pt x="679" y="212" on="1"/>
        <pt x="679" y="45" on="1"/>
        <pt x="1091" y="45" on="1"/>
        <pt x="1091" y="122" on="1"/>
        <pt x="1136" y="122" on="1"/>
        <pt x="1136" y="0" on="1"/>
        <pt x="55" y="0" on="1"/>
      </contour>
      <contour>
        <pt x="679" y="424" on="1"/>
        <pt x="679" y="257" on="1"/>
        <pt x="1091" y="257" on="1"/>
        <pt x="1091" y="424" on="1"/>
      </contour>
      <contour>
        <pt x="512" y="45" on="1"/>
        <pt x="512" y="212" on="1"/>
        <pt x="100" y="212" on="1"/>
        <pt x="100" y="45" on="1"/>
      </contour>
    </TTGlyph>
    <TTGlyph name="agrave" xMin="55" yMin="0" xMax="778" yMax="710">
      <component glyphName="a" x="0" y="0" flags="0x1204"/>
      <component glyphName="grave" x="123" y="0" flags="0x1004"/>
    </TTGlyph>
    <TTGlyph name="ampersand" xMin="57" yMin="-73" xMax="657" yMax="770">
      <contour>
        <pt x="224" y="583" on="1"/>
        <pt x="224" y="371" on="1"/>
        <pt x="520" y="371" on="1"/>
        <pt x="520" y="326" on="1"/>
        <pt x="224" y="326" on="1"/>
        <pt x="224" y="113" on="1"/>
        <pt x="657" y="113" on="1"/>
        <pt x="657" y="68" on="1"/>
        <pt x="397" y="68" on="1"/>
        <pt x="397" y="-73" on="1"/>
        <pt x="352" y="-73" on="1"/>
        <pt x="352" y="68" on="1"/>
        <pt x="57" y="68" on="1"/>
        <pt x="57" y="628" on="1"/>
        <pt x="352" y="628" on="1"/>
        <pt x="352" y="770" on="1"/>
        <pt x="397" y="770" on="1"/>
        <pt x="397" y="628" on="1"/>
        <pt x="657" y="628" on="1"/>
        <pt x="657" y="583" on="1"/>
      </contour>
    </TTGlyph>
    <TTGlyph name="aring" xMin="55" yMin="0" xMax="778" yMax="722">
      <component glyphName="a" x="0" y="0" flags="0x1204"/>
      <component glyphName="ring" x="99" y="0" flags="0x1004"/>
    </TTGlyph>
    <TTGlyph name="asciicircum" xMin="49" yMin="318" xMax="464" yMax="729">
      <contour>
        <pt x="464" y="318" on="1"/>
        <pt x="414" y="318" on="1"/>
        <pt x="324" y="494" on="1"/>
        <pt x="235" y="318" on="1"/>
        <pt x="49" y="318" on="1"/>
        <pt x="256" y="729" on="1"/>
      </contour>
    </TTGlyph>
    <TTGlyph name="asciitilde" xMin="53" yMin="289" xMax="759" yMax="453">
      <contour>
        <pt x="603" y="289" on="1"/>
        <pt x="469" y="289" on="1"/>
        <pt x="318" y="392" on="1"/>
        <pt x="220" y="289" on="1"/>
        <pt x="53" y="289" on="1"/>
        <pt x="177" y="453" on="1"/>
        <pt x="317" y="453" on="1"/>
        <pt x="476" y="343" on="1"/>
        <pt x="560" y="453" on="1"/>
        <pt x="759" y="453" on="1"/>
      </contour>
    </TTGlyph>
    <TTGlyph name="asterisk" xMin="49" yMin="370" xMax="448" yMax="747">
      <contour>
        <pt x="448" y="527" on="1"/>
        <pt x="303" y="527" on="1"/>
        <pt x="375" y="401" on="1"/>
        <pt x="321" y="370" on="1"/>
        <pt x="248" y="495" on="1"/>
        <pt x="176" y="370" on="1"/>
        <pt x="121" y="401" on="1"/>
        <pt x="194" y="527" on="1"/>
        <pt x="49" y="527" on="1"/>
        <pt x="49" y="590" on="1"/>
        <pt x="194" y="590" on="1"/>
        <pt x="121" y="715" on="1"/>
        <pt x="176" y="747" on="1"/>
        <pt x="248" y="621" on="1"/>
        <pt x="321" y="747" on="1"/>
        <pt x="375" y="715" on="1"/>
        <pt x="303" y="590" on="1"/>
        <pt x="448" y="590" on="1"/>
      </contour>
    </TTGlyph>
    <TTGlyph name="at" xMin="69" yMin="33" xMax="789" yMax="661">
      <contour>
        <pt x="623" y="314" on="1"/>
        <pt x="357" y="314" on="1"/>
        <pt x="357" y="154" on="1"/>
        <pt x="190" y="154" on="1"/>
        <pt x="190" y="540" on="1"/>
        <pt x="668" y="540" on="1"/>
        <pt x="668" y="199" on="1"/>
        <pt x="744" y="199" on="1"/>
        <pt x="744" y="616" on="1"/>
        <pt x="114" y="616" on="1"/>
        <pt x="114" y="78" on="1"/>
        <pt x="789" y="78" on="1"/>
        <pt x="789" y="33" on="1"/>
        <pt x="69" y="33" on="1"/>
        <pt x="69" y="661" on="1"/>
        <pt x="789" y="661" on="1"/>
        <pt x="789" y="154" on="1"/>
        <pt x="623" y="154" on="1"/>
      </contour>
      <contour>
        <pt x="623" y="359" on="1"/>
        <pt x="623" y="495" on="1"/>
        <pt x="357" y="495" on="1"/>
        <pt x="357" y="359" on="1"/>
      </contour>
    </TTGlyph>
    <TTGlyph name="atilde" xMin="55" yMin="0" xMax="778" yMax="710">
      <component glyphName="a" x="0" y="0" flags="0x1204"/>
      <component glyphName="tilde" x="28" y="0" flags="0x1004"/>
    </TTGlyph>
    <TTGlyph name="b" xMin="-39" yMin="0" xMax="698" yMax="695">
      <contour>
        <pt x="698" y="469" on="1"/>
        <pt x="698" y="0" on="1"/>
        <pt x="60" y="0" on="1"/>
        <pt x="60" y="650" on="1"/>
        <pt x="-39" y="650" on="1"/>
        <pt x="-39" y="695" on="1"/>
        <pt x="227" y="695" on="1"/>
        <pt x="227" y="469" on="1"/>
      </contour>
      <contour>
        <pt x="653" y="45" on="1"/>
        <pt x="653" y="424" on="1"/>
        <pt x="227" y="424" on="1"/>
        <pt x="227" y="45" on="1"/>
      </contour>
    </TTGlyph>
    <TTGlyph name="backslash" xMin="27" yMin="-147" xMax="687" yMax="757">
      <contour>
        <pt x="215" y="757" on="1"/>
        <pt x="687" y="-147" on="1"/>
        <pt x="499" y="-147" on="1"/>
        <pt x="27" y="757" on="1"/>
      </contour>
    </TTGlyph>
    <TTGlyph name="bar" xMin="72" yMin="-185" xMax="239" yMax="750">
      <contour>
        <pt x="239" y="-185" on="1"/>
        <pt x="72" y="-185" on="1"/>
        <pt x="72" y="750" on="1"/>
        <pt x="239" y="750" on="1"/>
      </contour>
    </TTGlyph>
    <TTGlyph name="braceleft" xMin="20" yMin="-92" xMax="444" yMax="761">
      <contour>
        <pt x="264" y="631" on="1"/>
        <pt x="264" y="38" on="1"/>
        <pt x="370" y="-47" on="1"/>
        <pt x="444" y="-47" on="1"/>
        <pt x="444" y="-92" on="1"/>
        <pt x="353" y="-92" on="1"/>
        <pt x="97" y="115" on="1"/>
        <pt x="97" y="312" on="1"/>
        <pt x="20" y="312" on="1"/>
        <pt x="20" y="357" on="1"/>
        <pt x="97" y="357" on="1"/>
        <pt x="97" y="554" on="1"/>
        <pt x="353" y="761" on="1"/>
        <pt x="444" y="761" on="1"/>
        <pt x="444" y="716" on="1"/>
        <pt x="369" y="716" on="1"/>
      </contour>
    </TTGlyph>
    <TTGlyph name="braceright" xMin="21" yMin="-92" xMax="445" yMax="761">
      <contour>
        <pt x="96" y="716" on="1"/>
        <pt x="21" y="716" on="1"/>
        <pt x="21" y="761" on="1"/>
        <pt x="112" y="761" on="1"/>
        <pt x="368" y="554" on="1"/>
        <pt x="368" y="357" on="1"/>
        <pt x="445" y="357" on="1"/>
        <pt x="445" y="312" on="1"/>
        <pt x="368" y="312" on="1"/>
        <pt x="368" y="115" on="1"/>
        <pt x="112" y="-92" on="1"/>
        <pt x="21" y="-92" on="1"/>
        <pt x="21" y="-47" on="1"/>
        <pt x="95" y="-47" on="1"/>
        <pt x="201" y="38" on="1"/>
        <pt x="201" y="631" on="1"/>
      </contour>
    </TTGlyph>
    <TTGlyph name="bracketleft" xMin="70" yMin="-99" xMax="417" yMax="767">
      <contour>
        <pt x="237" y="722" on="1"/>
        <pt x="237" y="-54" on="1"/>
        <pt x="417" y="-54" on="1"/>
        <pt x="417" y="-99" on="1"/>
        <pt x="70" y="-99" on="1"/>
        <pt x="70" y="767" on="1"/>
        <pt x="417" y="767" on="1"/>
        <pt x="417" y="722" on="1"/>
      </contour>
    </TTGlyph>
    <TTGlyph name="bracketright" xMin="21" yMin="-99" xMax="368" yMax="767">
      <contour>
        <pt x="21" y="722" on="1"/>
        <pt x="21" y="767" on="1"/>
        <pt x="368" y="767" on="1"/>
        <pt x="368" y="-99" on="1"/>
        <pt x="21" y="-99" on="1"/>
        <pt x="21" y="-54" on="1"/>
        <pt x="201" y="-54" on="1"/>
        <pt x="201" y="722" on="1"/>
      </contour>
    </TTGlyph>
    <TTGlyph name="brokenbar" xMin="72" yMin="-48" xMax="117" yMax="834">
      <contour>
        <pt x="117" y="834" on="1"/>
        <pt x="117" y="459" on="1"/>
        <pt x="72" y="459" on="1"/>
        <pt x="72" y="834" on="1"/>
      </contour>
      <contour>
        <pt x="117" y="327" on="1"/>
        <pt x="117" y="-48" on="1"/>
        <pt x="72" y="-48" on="1"/>
        <pt x="72" y="327" on="1"/>
      </contour>
    </TTGlyph>
    <TTGlyph name="bullet" xMin="79" yMin="237" xMax="317" yMax="428">
      <contour>
        <pt x="317" y="237" on="1"/>
        <pt x="79" y="237" on="1"/>
        <pt x="79" y="428" on="1"/>
        <pt x="317" y="428" on="1"/>
      </contour>
    </TTGlyph>
    <TTGlyph name="c" xMin="60" yMin="0" xMax="684" yMax="469">
      <contour>
        <pt x="639" y="122" on="1"/>
        <pt x="684" y="122" on="1"/>
        <pt x="684" y="0" on="1"/>
        <pt x="60" y="0" on="1"/>
        <pt x="60" y="469" on="1"/>
        <pt x="684" y="469" on="1"/>
        <pt x="684" y="347" on="1"/>
        <pt x="639" y="347" on="1"/>
        <pt x="639" y="424" on="1"/>
        <pt x="227" y="424" on="1"/>
        <pt x="227" y="45" on="1"/>
        <pt x="639" y="45" on="1"/>
      </contour>
    </TTGlyph>
    <TTGlyph name="caron" xMin="66" yMin="546" xMax="447" yMax="710">
      <contour>
        <pt x="66" y="710" on="1"/>
        <pt x="122" y="710" on="1"/>
        <pt x="189" y="615" on="1"/>
        <pt x="280" y="710" on="1"/>
        <pt x="447" y="710" on="1"/>
        <pt x="323" y="546" on="1"/>
        <pt x="183" y="546" on="1"/>
      </contour>
    </TTGlyph>
    <TTGlyph name="ccedilla" xMin="60" yMin="-183" xMax="684" yMax="469">
      <contour>
        <pt x="639" y="122" on="1"/>
        <pt x="684" y="122" on="1"/>
        <pt x="684" y="0" on="1"/>
        <pt x="504" y="0" on="1"/>
        <pt x="409" y="-183" on="1"/>
        <pt x="221" y="-183" on="1"/>
        <pt x="316" y="0" on="1"/>
        <pt x="60" y="0" on="1"/>
        <pt x="60" y="469" on="1"/>
        <pt x="684" y="469" on="1"/>
        <pt x="684" y="347" on="1"/>
        <pt x="639" y="347" on="1"/>
        <pt x="639" y="424" on="1"/>
        <pt x="227" y="424" on="1"/>
        <pt x="227" y="45" on="1"/>
        <pt x="639" y="45" on="1"/>
      </contour>
      <contour>
        <pt x="381" y="-138" on="1"/>
        <pt x="453" y="0" on="1"/>
        <pt x="368" y="0" on="1"/>
        <pt x="295" y="-138" on="1"/>
      </contour>
    </TTGlyph>
    <TTGlyph name="cedilla" xMin="96" yMin="-183" xMax="403" yMax="45">
      <contour>
        <pt x="403" y="45" on="1"/>
        <pt x="284" y="-183" on="1"/>
        <pt x="96" y="-183" on="1"/>
        <pt x="215" y="45" on="1"/>
      </contour>
    </TTGlyph>
    <TTGlyph name="cent" xMin="52" yMin="148" xMax="614" yMax="796">
      <contour>
        <pt x="569" y="566" on="1"/>
        <pt x="569" y="650" on="1"/>
        <pt x="318" y="650" on="1"/>
        <pt x="318" y="294" on="1"/>
        <pt x="569" y="294" on="1"/>
        <pt x="569" y="378" on="1"/>
        <pt x="614" y="378" on="1"/>
        <pt x="614" y="249" on="1"/>
        <pt x="420" y="249" on="1"/>
        <pt x="420" y="148" on="1"/>
        <pt x="375" y="148" on="1"/>
        <pt x="375" y="249" on="1"/>
        <pt x="52" y="249" on="1"/>
        <pt x="52" y="294" on="1"/>
        <pt x="151" y="294" on="1"/>
        <pt x="151" y="650" on="1"/>
        <pt x="52" y="650" on="1"/>
        <pt x="52" y="695" on="1"/>
        <pt x="375" y="695" on="1"/>
        <pt x="375" y="796" on="1"/>
        <pt x="420" y="796" on="1"/>
        <pt x="420" y="695" on="1"/>
        <pt x="614" y="695" on="1"/>
        <pt x="614" y="566" on="1"/>
      </contour>
    </TTGlyph>
    <TTGlyph name="circumflex" xMin="66" yMin="546" xMax="447" yMax="710">
      <contour>
        <pt x="447" y="546" on="1"/>
        <pt x="391" y="546" on="1"/>
        <pt x="324" y="641" on="1"/>
        <pt x="233" y="546" on="1"/>
        <pt x="66" y="546" on="1"/>
        <pt x="190" y="710" on="1"/>
        <pt x="330" y="710" on="1"/>
      </contour>
    </TTGlyph>
    <TTGlyph name="colon" xMin="65" yMin="0" xMax="257" yMax="554">
      <contour>
        <pt x="257" y="0" on="1"/>
        <pt x="65" y="0" on="1"/>
        <pt x="65" y="153" on="1"/>
        <pt x="257" y="153" on="1"/>
      </contour>
      <contour>
        <pt x="257" y="401" on="1"/>
        <pt x="65" y="401" on="1"/>
        <pt x="65" y="554" on="1"/>
        <pt x="257" y="554" on="1"/>
      </contour>
    </TTGlyph>
    <TTGlyph name="comma" xMin="-41" yMin="-147" xMax="303" yMax="153">
      <contour>
        <pt x="303" y="153" on="1"/>
        <pt x="147" y="-147" on="1"/>
        <pt x="-41" y="-147" on="1"/>
        <pt x="115" y="153" on="1"/>
      </contour>
    </TTGlyph>
    <TTGlyph name="copyright" xMin="69" yMin="30" xMax="755" yMax="663">
      <contour>
        <pt x="755" y="30" on="1"/>
        <pt x="69" y="30" on="1"/>
        <pt x="69" y="663" on="1"/>
        <pt x="755" y="663" on="1"/>
      </contour>
      <contour>
        <pt x="114" y="75" on="1"/>
        <pt x="710" y="75" on="1"/>
        <pt x="710" y="618" on="1"/>
        <pt x="114" y="618" on="1"/>
      </contour>
      <contour>
        <pt x="652" y="442" on="1"/>
        <pt x="652" y="560" on="1"/>
        <pt x="172" y="560" on="1"/>
        <pt x="172" y="133" on="1"/>
        <pt x="652" y="133" on="1"/>
        <pt x="652" y="250" on="1"/>
        <pt x="607" y="250" on="1"/>
        <pt x="607" y="178" on="1"/>
        <pt x="339" y="178" on="1"/>
        <pt x="339" y="515" on="1"/>
        <pt x="607" y="515" on="1"/>
        <pt x="607" y="442" on="1"/>
      </contour>
    </TTGlyph>
    <TTGlyph name="currency" xMin="57" yMin="51" xMax="613" yMax="607">
      <contour>
        <pt x="505" y="403" on="1"/>
        <pt x="505" y="256" on="1"/>
        <pt x="613" y="148" on="1"/>
        <pt x="581" y="116" on="1"/>
        <pt x="460" y="237" on="1"/>
        <pt x="460" y="421" on="1"/>
        <pt x="581" y="542" on="1"/>
        <pt x="613" y="510" on="1"/>
      </contour>
      <contour>
        <pt x="210" y="238" on="1"/>
        <pt x="89" y="116" on="1"/>
        <pt x="57" y="148" on="1"/>
        <pt x="165" y="257" on="1"/>
        <pt x="165" y="402" on="1"/>
        <pt x="57" y="510" on="1"/>
        <pt x="89" y="542" on="1"/>
        <pt x="210" y="421" on="1"/>
      </contour>
      <contour>
        <pt x="244" y="454" on="1"/>
        <pt x="122" y="575" on="1"/>
        <pt x="154" y="607" on="1"/>
        <pt x="262" y="499" on="1"/>
        <pt x="408" y="499" on="1"/>
        <pt x="516" y="607" on="1"/>
        <pt x="548" y="575" on="1"/>
        <pt x="426" y="454" on="1"/>
      </contour>
      <contour>
        <pt x="427" y="204" on="1"/>
        <pt x="548" y="83" on="1"/>
        <pt x="516" y="51" on="1"/>
        <pt x="408" y="159" on="1"/>
        <pt x="262" y="159" on="1"/>
        <pt x="154" y="51" on="1"/>
        <pt x="122" y="83" on="1"/>
        <pt x="243" y="204" on="1"/>
      </contour>
    </TTGlyph>
    <TTGlyph name="d" xMin="60" yMin="0" xMax="797" yMax="695">
      <contour>
        <pt x="531" y="469" on="1"/>
        <pt x="531" y="650" on="1"/>
        <pt x="432" y="650" on="1"/>
        <pt x="432" y="695" on="1"/>
        <pt x="698" y="695" on="1"/>
        <pt x="698" y="45" on="1"/>
        <pt x="797" y="45" on="1"/>
        <pt x="797" y="0" on="1"/>
        <pt x="60" y="0" on="1"/>
        <pt x="60" y="469" on="1"/>
      </contour>
      <contour>
        <pt x="105" y="45" on="1"/>
        <pt x="531" y="45" on="1"/>
        <pt x="531" y="424" on="1"/>
        <pt x="105" y="424" on="1"/>
      </contour>
    </TTGlyph>
    <TTGlyph name="dagger" xMin="38" yMin="-61" xMax="522" yMax="710">
      <contour>
        <pt x="522" y="488" on="1"/>
        <pt x="522" y="442" on="1"/>
        <pt x="363" y="442" on="1"/>
        <pt x="363" y="-61" on="1"/>
        <pt x="196" y="-61" on="1"/>
        <pt x="196" y="442" on="1"/>
        <pt x="38" y="442" on="1"/>
        <pt x="38" y="488" on="1"/>
        <pt x="196" y="488" on="1"/>
        <pt x="196" y="710" on="1"/>
        <pt x="363" y="710" on="1"/>
        <pt x="363" y="488" on="1"/>
      </contour>
    </TTGlyph>
    <TTGlyph name="daggerdbl" xMin="49" yMin="-61" xMax="533" yMax="710">
      <contour>
        <pt x="374" y="442" on="1"/>
        <pt x="374" y="207" on="1"/>
        <pt x="533" y="207" on="1"/>
        <pt x="533" y="161" on="1"/>
        <pt x="374" y="161" on="1"/>
        <pt x="374" y="-61" on="1"/>
        <pt x="207" y="-61" on="1"/>
        <pt x="207" y="161" on="1"/>
        <pt x="49" y="161" on="1"/>
        <pt x="49" y="207" on="1"/>
        <pt x="207" y="207" on="1"/>
        <pt x="207" y="442" on="1"/>
        <pt x="49" y="442" on="1"/>
        <pt x="49" y="488" on="1"/>
        <pt x="207" y="488" on="1"/>
        <pt x="207" y="710" on="1"/>
        <pt x="374" y="710" on="1"/>
        <pt x="374" y="488" on="1"/>
        <pt x="533" y="488" on="1"/>
        <pt x="533" y="442" on="1"/>
      </contour>
    </TTGlyph>
    <TTGlyph name="degree" xMin="65" yMin="459" xMax="278" yMax="664">
      <contour>
        <pt x="278" y="459" on="1"/>
        <pt x="65" y="459" on="1"/>
        <pt x="65" y="664" on="1"/>
        <pt x="278" y="664" on="1"/>
      </contour>
    </TTGlyph>
    <TTGlyph name="dieresis" xMin="95" yMin="546" xMax="491" yMax="688">
      <contour>
        <pt x="260" y="546" on="1"/>
        <pt x="95" y="546" on="1"/>
        <pt x="95" y="688" on="1"/>
        <pt x="260" y="688" on="1"/>
      </contour>
      <contour>
        <pt x="491" y="546" on="1"/>
        <pt x="326" y="546" on="1"/>
        <pt x="326" y="688" on="1"/>
        <pt x="491" y="688" on="1"/>
      </contour>
    </TTGlyph>
    <TTGlyph name="divide" xMin="51" yMin="65" xMax="592" yMax="601">
      <contour>
        <pt x="592" y="409" on="1"/>
        <pt x="592" y="256" on="1"/>
        <pt x="51" y="256" on="1"/>
        <pt x="51" y="409" on="1"/>
      </contour>
      <contour>
        <pt x="225" y="218" on="1"/>
        <pt x="417" y="218" on="1"/>
        <pt x="417" y="65" on="1"/>
        <pt x="225" y="65" on="1"/>
      </contour>
      <contour>
        <pt x="417" y="448" on="1"/>
        <pt x="225" y="448" on="1"/>
        <pt x="225" y="601" on="1"/>
        <pt x="417" y="601" on="1"/>
      </contour>
    </TTGlyph>
    <TTGlyph name="dollar" xMin="55" yMin="-122" xMax="871" yMax="817">
      <contour>
        <pt x="826" y="510" on="1"/>
        <pt x="826" y="650" on="1"/>
        <pt x="485" y="650" on="1"/>
        <pt x="485" y="370" on="1"/>
        <pt x="871" y="370" on="1"/>
        <pt x="871" y="0" on="1"/>
        <pt x="485" y="0" on="1"/>
        <pt x="485" y="-122" on="1"/>
        <pt x="440" y="-122" on="1"/>
        <pt x="440" y="0" on="1"/>
        <pt x="55" y="0" on="1"/>
        <pt x="55" y="185" on="1"/>
        <pt x="100" y="185" on="1"/>
        <pt x="100" y="45" on="1"/>
        <pt x="440" y="45" on="1"/>
        <pt x="440" y="325" on="1"/>
        <pt x="55" y="325" on="1"/>
        <pt x="55" y="695" on="1"/>
        <pt x="440" y="695" on="1"/>
        <pt x="440" y="817" on="1"/>
        <pt x="485" y="817" on="1"/>
        <pt x="485" y="695" on="1"/>
        <pt x="871" y="695" on="1"/>
        <pt x="871" y="510" on="1"/>
      </contour>
      <contour>
        <pt x="485" y="325" on="1"/>
        <pt x="485" y="45" on="1"/>
        <pt x="704" y="45" on="1"/>
        <pt x="704" y="325" on="1"/>
      </contour>
      <contour>
        <pt x="440" y="650" on="1"/>
        <pt x="222" y="650" on="1"/>
        <pt x="222" y="370" on="1"/>
        <pt x="440" y="370" on="1"/>
      </contour>
    </TTGlyph>
    <TTGlyph name="dollar.alt" xMin="55" yMin="-146" xMax="871" yMax="841">
      <contour>
        <pt x="826" y="510" on="1"/>
        <pt x="826" y="650" on="1"/>
        <pt x="222" y="650" on="1"/>
        <pt x="222" y="370" on="1"/>
        <pt x="871" y="370" on="1"/>
        <pt x="871" y="0" on="1"/>
        <pt x="485" y="0" on="1"/>
        <pt x="485" y="-146" on="1"/>
        <pt x="440" y="-146" on="1"/>
        <pt x="440" y="0" on="1"/>
        <pt x="55" y="0" on="1"/>
        <pt x="55" y="185" on="1"/>
        <pt x="100" y="185" on="1"/>
        <pt x="100" y="45" on="1"/>
        <pt x="704" y="45" on="1"/>
        <pt x="704" y="325" on="1"/>
        <pt x="55" y="325" on="1"/>
        <pt x="55" y="695" on="1"/>
        <pt x="440" y="695" on="1"/>
        <pt x="440" y="841" on="1"/>
        <pt x="485" y="841" on="1"/>
        <pt x="485" y="695" on="1"/>
        <pt x="871" y="695" on="1"/>
        <pt x="871" y="510" on="1"/>
      </contour>
    </TTGlyph>
    <TTGlyph name="dotaccent" xMin="95" yMin="546" xMax="260" yMax="688">
      <contour>
        <pt x="260" y="546" on="1"/>
        <pt x="95" y="546" on="1"/>
        <pt x="95" y="688" on="1"/>
        <pt x="260" y="688" on="1"/>
      </contour>
    </TTGlyph>
    <TTGlyph name="dotlessi" xMin="35" yMin="0" xMax="400" yMax="469">
      <contour>
        <pt x="301" y="45" on="1"/>
        <pt x="400" y="45" on="1"/>
        <pt x="400" y="0" on="1"/>
        <pt x="35" y="0" on="1"/>
        <pt x="35" y="45" on="1"/>
        <pt x="134" y="45" on="1"/>
        <pt x="134" y="424" on="1"/>
        <pt x="35" y="424" on="1"/>
        <pt x="35" y="469" on="1"/>
        <pt x="301" y="469" on="1"/>
      </contour>
    </TTGlyph>
    <TTGlyph name="e" xMin="60" yMin="0" xMax="684" yMax="469">
      <contour>
        <pt x="60" y="469" on="1"/>
        <pt x="684" y="469" on="1"/>
        <pt x="684" y="212" on="1"/>
        <pt x="227" y="212" on="1"/>
        <pt x="227" y="45" on="1"/>
        <pt x="639" y="45" on="1"/>
        <pt x="639" y="122" on="1"/>
        <pt x="684" y="122" on="1"/>
        <pt x="684" y="0" on="1"/>
        <pt x="60" y="0" on="1"/>
      </contour>
      <contour>
        <pt x="227" y="424" on="1"/>
        <pt x="227" y="257" on="1"/>
        <pt x="639" y="257" on="1"/>
        <pt x="639" y="424" on="1"/>
      </contour>
    </TTGlyph>
    <TTGlyph name="eacute" xMin="60" yMin="0" xMax="684" yMax="710">
      <component glyphName="e" x="0" y="0" flags="0x1004"/>
      <component glyphName="acute" x="170" y="0" flags="0x1004"/>
    </TTGlyph>
    <TTGlyph name="ecircumflex" xMin="60" yMin="0" xMax="684" yMax="710">
      <component glyphName="e" x="0" y="0" flags="0x1004"/>
      <component glyphName="circumflex" x="114" y="0" flags="0x1004"/>
    </TTGlyph>
    <TTGlyph name="edieresis" xMin="60" yMin="0" xMax="684" yMax="688">
      <component glyphName="e" x="0" y="0" flags="0x1004"/>
      <component glyphName="dieresis" x="83" y="0" flags="0x1004"/>
    </TTGlyph>
    <TTGlyph name="egrave" xMin="60" yMin="0" xMax="684" yMax="710">
      <component glyphName="e" x="0" y="0" flags="0x1004"/>
      <component glyphName="grave" x="129" y="0" flags="0x1004"/>
    </TTGlyph>
    <TTGlyph name="eight" xMin="66" yMin="0" xMax="882" yMax="695">
      <contour>
        <pt x="882" y="0" on="1"/>
        <pt x="66" y="0" on="1"/>
        <pt x="66" y="695" on="1"/>
        <pt x="882" y="695" on="1"/>
      </contour>
      <contour>
        <pt x="836" y="325" on="1"/>
        <pt x="233" y="325" on="1"/>
        <pt x="233" y="45" on="1"/>
        <pt x="836" y="45" on="1"/>
      </contour>
      <contour>
        <pt x="233" y="371" on="1"/>
        <pt x="836" y="371" on="1"/>
        <pt x="836" y="650" on="1"/>
        <pt x="233" y="650" on="1"/>
      </contour>
    </TTGlyph>
    <TTGlyph name="ellipsis" xMin="59" yMin="0" xMax="1121" yMax="153">
      <contour>
        <pt x="251" y="0" on="1"/>
        <pt x="59" y="0" on="1"/>
        <pt x="59" y="153" on="1"/>
        <pt x="251" y="153" on="1"/>
      </contour>
      <contour>
        <pt x="686" y="0" on="1"/>
        <pt x="494" y="0" on="1"/>
        <pt x="494" y="153" on="1"/>
        <pt x="686" y="153" on="1"/>
      </contour>
      <contour>
        <pt x="1121" y="0" on="1"/>
        <pt x="929" y="0" on="1"/>
        <pt x="929" y="153" on="1"/>
        <pt x="1121" y="153" on="1"/>
      </contour>
    </TTGlyph>
    <TTGlyph name="emdash" xMin="59" yMin="256" xMax="730" yMax="409">
      <contour>
        <pt x="730" y="256" on="1"/>
        <pt x="59" y="256" on="1"/>
        <pt x="59" y="409" on="1"/>
        <pt x="730" y="409" on="1"/>
      </contour>
    </TTGlyph>
    <TTGlyph name="endash" xMin="59" yMin="256" xMax="581" yMax="409">
      <contour>
        <pt x="581" y="256" on="1"/>
        <pt x="59" y="256" on="1"/>
        <pt x="59" y="409" on="1"/>
        <pt x="581" y="409" on="1"/>
      </contour>
    </TTGlyph>
    <TTGlyph name="equal" xMin="65" yMin="133" xMax="619" yMax="549">
      <contour>
        <pt x="619" y="396" on="1"/>
        <pt x="65" y="396" on="1"/>
        <pt x="65" y="549" on="1"/>
        <pt x="619" y="549" on="1"/>
      </contour>
      <contour>
        <pt x="619" y="133" on="1"/>
        <pt x="65" y="133" on="1"/>
        <pt x="65" y="286" on="1"/>
        <pt x="619" y="286" on="1"/>
      </contour>
    </TTGlyph>
    <TTGlyph name="eth" xMin="60" yMin="0" xMax="684" yMax="774">
      <contour>
        <pt x="684" y="469" on="1"/>
        <pt x="684" y="0" on="1"/>
        <pt x="60" y="0" on="1"/>
        <pt x="60" y="469" on="1"/>
        <pt x="613" y="469" on="1"/>
        <pt x="367" y="631" on="1"/>
        <pt x="307" y="559" on="1"/>
        <pt x="281" y="581" on="1"/>
        <pt x="338" y="650" on="1"/>
        <pt x="230" y="722" on="1"/>
        <pt x="259" y="757" on="1"/>
        <pt x="366" y="684" on="1"/>
        <pt x="441" y="774" on="1"/>
        <pt x="468" y="752" on="1"/>
        <pt x="395" y="665" on="1"/>
      </contour>
      <contour>
        <pt x="639" y="424" on="1"/>
        <pt x="227" y="424" on="1"/>
        <pt x="227" y="45" on="1"/>
        <pt x="639" y="45" on="1"/>
      </contour>
    </TTGlyph>
    <TTGlyph name="exclam" xMin="67" yMin="0" xMax="274" yMax="695">
      <contour>
        <pt x="246" y="225" on="1"/>
        <pt x="95" y="225" on="1"/>
        <pt x="67" y="695" on="1"/>
        <pt x="274" y="695" on="1"/>
      </contour>
      <contour>
        <pt x="267" y="0" on="1"/>
        <pt x="75" y="0" on="1"/>
        <pt x="75" y="153" on="1"/>
        <pt x="267" y="153" on="1"/>
      </contour>
    </TTGlyph>
    <TTGlyph name="exclamdown" xMin="55" yMin="-195" xMax="262" yMax="500">
      <component glyphName="exclam" x="-12" y="500" scalex="1.0" scaley="-0.999938964844" flags="0x1004"/>
    </TTGlyph>
    <TTGlyph name="f" xMin="35" yMin="0" xMax="552" yMax="695">
      <contour>
        <pt x="301" y="650" on="1"/>
        <pt x="301" y="469" on="1"/>
        <pt x="516" y="469" on="1"/>
        <pt x="516" y="424" on="1"/>
        <pt x="301" y="424" on="1"/>
        <pt x="301" y="45" on="1"/>
        <pt x="400" y="45" on="1"/>
        <pt x="400" y="0" on="1"/>
        <pt x="35" y="0" on="1"/>
        <pt x="35" y="45" on="1"/>
        <pt x="134" y="45" on="1"/>
        <pt x="134" y="424" on="1"/>
        <pt x="35" y="424" on="1"/>
        <pt x="35" y="469" on="1"/>
        <pt x="134" y="469" on="1"/>
        <pt x="134" y="695" on="1"/>
        <pt x="552" y="695" on="1"/>
        <pt x="552" y="650" on="1"/>
      </contour>
    </TTGlyph>
    <TTGlyph name="five" xMin="62" yMin="0" xMax="878" yMax="695">
      <contour>
        <pt x="878" y="695" on="1"/>
        <pt x="878" y="510" on="1"/>
        <pt x="833" y="510" on="1"/>
        <pt x="833" y="650" on="1"/>
        <pt x="229" y="650" on="1"/>
        <pt x="229" y="370" on="1"/>
        <pt x="878" y="370" on="1"/>
        <pt x="878" y="0" on="1"/>
        <pt x="62" y="0" on="1"/>
        <pt x="62" y="185" on="1"/>
        <pt x="107" y="185" on="1"/>
        <pt x="107" y="45" on="1"/>
        <pt x="711" y="45" on="1"/>
        <pt x="711" y="325" on="1"/>
        <pt x="62" y="325" on="1"/>
        <pt x="62" y="695" on="1"/>
      </contour>
    </TTGlyph>
    <TTGlyph name="florin" xMin="60" yMin="-141" xMax="772" yMax="695">
      <contour>
        <pt x="772" y="695" on="1"/>
        <pt x="772" y="510" on="1"/>
        <pt x="727" y="510" on="1"/>
        <pt x="727" y="650" on="1"/>
        <pt x="326" y="650" on="1"/>
        <pt x="326" y="351" on="1"/>
        <pt x="609" y="351" on="1"/>
        <pt x="609" y="306" on="1"/>
        <pt x="326" y="306" on="1"/>
        <pt x="326" y="-96" on="1"/>
        <pt x="425" y="-96" on="1"/>
        <pt x="425" y="-141" on="1"/>
        <pt x="60" y="-141" on="1"/>
        <pt x="60" y="-96" on="1"/>
        <pt x="159" y="-96" on="1"/>
        <pt x="159" y="306" on="1"/>
        <pt x="60" y="306" on="1"/>
        <pt x="60" y="351" on="1"/>
        <pt x="159" y="351" on="1"/>
        <pt x="159" y="650" on="1"/>
        <pt x="60" y="650" on="1"/>
        <pt x="60" y="695" on="1"/>
      </contour>
    </TTGlyph>
    <TTGlyph name="four" xMin="41" yMin="0" xMax="857" yMax="695">
      <contour>
        <pt x="857" y="0" on="1"/>
        <pt x="690" y="0" on="1"/>
        <pt x="690" y="325" on="1"/>
        <pt x="41" y="325" on="1"/>
        <pt x="41" y="695" on="1"/>
        <pt x="86" y="695" on="1"/>
        <pt x="86" y="370" on="1"/>
        <pt x="690" y="370" on="1"/>
        <pt x="690" y="695" on="1"/>
        <pt x="857" y="695" on="1"/>
      </contour>
    </TTGlyph>
    <TTGlyph name="fraction" xMin="-24" yMin="-44" xMax="746" yMax="738">
      <contour>
        <pt x="746" y="738" on="1"/>
        <pt x="146" y="-44" on="1"/>
        <pt x="-24" y="-44" on="1"/>
        <pt x="576" y="738" on="1"/>
      </contour>
    </TTGlyph>
    <TTGlyph name="g" xMin="60" yMin="-226" xMax="698" yMax="469">
      <contour>
        <pt x="698" y="-226" on="1"/>
        <pt x="60" y="-226" on="1"/>
        <pt x="60" y="-104" on="1"/>
        <pt x="105" y="-104" on="1"/>
        <pt x="105" y="-181" on="1"/>
        <pt x="531" y="-181" on="1"/>
        <pt x="531" y="0" on="1"/>
        <pt x="60" y="0" on="1"/>
        <pt x="60" y="469" on="1"/>
        <pt x="698" y="469" on="1"/>
      </contour>
      <contour>
        <pt x="531" y="424" on="1"/>
        <pt x="105" y="424" on="1"/>
        <pt x="105" y="45" on="1"/>
        <pt x="531" y="45" on="1"/>
      </contour>
    </TTGlyph>
    <TTGlyph name="germandbls" xMin="33" yMin="-81" xMax="949" yMax="695">
      <contour>
        <pt x="949" y="430" on="1"/>
        <pt x="949" y="379" on="0"/>
        <pt x="909" y="348" on="1"/>
        <pt x="949" y="317" on="0"/>
        <pt x="949" y="266" on="1"/>
        <pt x="949" y="0" on="1"/>
        <pt x="430" y="0" on="1"/>
        <pt x="430" y="45" on="1"/>
        <pt x="903" y="45" on="1"/>
        <pt x="903" y="266" on="1"/>
        <pt x="903" y="291" on="0"/>
        <pt x="869" y="325" on="0"/>
        <pt x="845" y="325" on="1"/>
        <pt x="430" y="325" on="1"/>
        <pt x="430" y="371" on="1"/>
        <pt x="845" y="371" on="1"/>
        <pt x="869" y="371" on="0"/>
        <pt x="903" y="405" on="0"/>
        <pt x="903" y="430" on="1"/>
        <pt x="903" y="650" on="1"/>
        <pt x="299" y="650" on="1"/>
        <pt x="299" y="-81" on="1"/>
        <pt x="33" y="-81" on="1"/>
        <pt x="33" y="-36" on="1"/>
        <pt x="132" y="-36" on="1"/>
        <pt x="132" y="650" on="1"/>
        <pt x="33" y="650" on="1"/>
        <pt x="33" y="695" on="1"/>
        <pt x="949" y="695" on="1"/>
      </contour>
    </TTGlyph>
    <TTGlyph name="grave" xMin="66" yMin="546" xMax="389" yMax="710">
      <contour>
        <pt x="265" y="710" on="1"/>
        <pt x="389" y="546" on="1"/>
        <pt x="222" y="546" on="1"/>
        <pt x="66" y="710" on="1"/>
      </contour>
    </TTGlyph>
    <TTGlyph name="greater" xMin="79" yMin="75" xMax="612" yMax="613">
      <contour>
        <pt x="79" y="125" on="1"/>
        <pt x="377" y="276" on="1"/>
        <pt x="79" y="427" on="1"/>
        <pt x="79" y="613" on="1"/>
        <pt x="612" y="344" on="1"/>
        <pt x="79" y="75" on="1"/>
      </contour>
    </TTGlyph>
    <TTGlyph name="guillemotleft" xMin="35" yMin="103" xMax="691" yMax="519">
      <contour>
        <pt x="691" y="519" on="1"/>
        <pt x="691" y="469" on="1"/>
        <pt x="515" y="379" on="1"/>
        <pt x="691" y="290" on="1"/>
        <pt x="691" y="104" on="1"/>
        <pt x="280" y="311" on="1"/>
      </contour>
      <contour>
        <pt x="446" y="468" on="1"/>
        <pt x="136" y="311" on="1"/>
        <pt x="446" y="154" on="1"/>
        <pt x="446" y="103" on="1"/>
        <pt x="35" y="310" on="1"/>
        <pt x="446" y="518" on="1"/>
      </contour>
    </TTGlyph>
    <TTGlyph name="guillemotright" xMin="69" yMin="103" xMax="725" yMax="519">
      <contour>
        <pt x="69" y="103" on="1"/>
        <pt x="69" y="153" on="1"/>
        <pt x="245" y="243" on="1"/>
        <pt x="69" y="332" on="1"/>
        <pt x="69" y="518" on="1"/>
        <pt x="480" y="311" on="1"/>
      </contour>
      <contour>
        <pt x="314" y="104" on="1"/>
        <pt x="314" y="154" on="1"/>
        <pt x="624" y="311" on="1"/>
        <pt x="314" y="468" on="1"/>
        <pt x="314" y="519" on="1"/>
        <pt x="725" y="312" on="1"/>
      </contour>
    </TTGlyph>
    <TTGlyph name="guilsinglleft" xMin="35" yMin="103" xMax="446" yMax="518">
      <contour>
        <pt x="446" y="518" on="1"/>
        <pt x="446" y="468" on="1"/>
        <pt x="270" y="378" on="1"/>
        <pt x="446" y="289" on="1"/>
        <pt x="446" y="103" on="1"/>
        <pt x="35" y="310" on="1"/>
      </contour>
    </TTGlyph>
    <TTGlyph name="guilsinglright" xMin="69" yMin="103" xMax="480" yMax="518">
      <contour>
        <pt x="69" y="103" on="1"/>
        <pt x="69" y="153" on="1"/>
        <pt x="245" y="243" on="1"/>
        <pt x="69" y="332" on="1"/>
        <pt x="69" y="518" on="1"/>
        <pt x="480" y="311" on="1"/>
      </contour>
    </TTGlyph>
    <TTGlyph name="h" xMin="20" yMin="0" xMax="850" yMax="695">
      <contour>
        <pt x="850" y="45" on="1"/>
        <pt x="850" y="0" on="1"/>
        <pt x="591" y="0" on="1"/>
        <pt x="591" y="45" on="1"/>
        <pt x="698" y="45" on="1"/>
        <pt x="698" y="424" on="1"/>
        <pt x="286" y="424" on="1"/>
        <pt x="286" y="45" on="1"/>
        <pt x="385" y="45" on="1"/>
        <pt x="385" y="0" on="1"/>
        <pt x="20" y="0" on="1"/>
        <pt x="20" y="45" on="1"/>
        <pt x="119" y="45" on="1"/>
        <pt x="119" y="650" on="1"/>
        <pt x="20" y="650" on="1"/>
        <pt x="20" y="695" on="1"/>
        <pt x="286" y="695" on="1"/>
        <pt x="286" y="469" on="1"/>
        <pt x="743" y="469" on="1"/>
        <pt x="743" y="45" on="1"/>
      </contour>
    </TTGlyph>
    <TTGlyph name="hungarumlaut" xMin="66" yMin="546" xMax="681" yMax="710">
      <contour>
        <pt x="389" y="710" on="1"/>
        <pt x="233" y="546" on="1"/>
        <pt x="66" y="546" on="1"/>
        <pt x="190" y="710" on="1"/>
      </contour>
      <contour>
        <pt x="681" y="710" on="1"/>
        <pt x="525" y="546" on="1"/>
        <pt x="358" y="546" on="1"/>
        <pt x="482" y="710" on="1"/>
      </contour>
    </TTGlyph>
    <TTGlyph name="hyphen" xMin="59" yMin="256" xMax="526" yMax="409">
      <contour>
        <pt x="526" y="256" on="1"/>
        <pt x="59" y="256" on="1"/>
        <pt x="59" y="409" on="1"/>
        <pt x="526" y="409" on="1"/>
      </contour>
    </TTGlyph>
    <TTGlyph name="i" xMin="35" yMin="0" xMax="400" yMax="695">
      <contour>
        <pt x="301" y="45" on="1"/>
        <pt x="400" y="45" on="1"/>
        <pt x="400" y="0" on="1"/>
        <pt x="35" y="0" on="1"/>
        <pt x="35" y="45" on="1"/>
        <pt x="134" y="45" on="1"/>
        <pt x="134" y="424" on="1"/>
        <pt x="35" y="424" on="1"/>
        <pt x="35" y="469" on="1"/>
        <pt x="301" y="469" on="1"/>
      </contour>
      <contour>
        <pt x="308" y="542" on="1"/>
        <pt x="127" y="542" on="1"/>
        <pt x="127" y="695" on="1"/>
        <pt x="308" y="695" on="1"/>
      </contour>
    </TTGlyph>
    <TTGlyph name="iacute" xMin="35" yMin="0" xMax="406" yMax="710">
      <component glyphName="dotlessi" x="0" y="0" flags="0x1204"/>
      <component glyphName="acute" x="17" y="0" flags="0x1004"/>
    </TTGlyph>
    <TTGlyph name="icircumflex" xMin="6" yMin="0" xMax="400" yMax="710">
      <component glyphName="dotlessi" x="0" y="0" flags="0x1204"/>
      <component glyphName="circumflex" x="-60" y="0" flags="0x1004"/>
    </TTGlyph>
    <TTGlyph name="idieresis" xMin="17" yMin="0" xMax="413" yMax="688">
      <component glyphName="dotlessi" x="0" y="0" flags="0x1204"/>
      <component glyphName="dieresis" x="-78" y="0" flags="0x1004"/>
    </TTGlyph>
    <TTGlyph name="igrave" xMin="16" yMin="0" xMax="400" yMax="710">
      <component glyphName="dotlessi" x="0" y="0" flags="0x1204"/>
      <component glyphName="grave" x="-50" y="0" flags="0x1004"/>
    </TTGlyph>
    <TTGlyph name="j" xMin="-206" yMin="-226" xMax="293" yMax="695">
      <contour>
        <pt x="286" y="469" on="1"/>
        <pt x="286" y="-226" on="1"/>
        <pt x="-206" y="-226" on="1"/>
        <pt x="-206" y="-104" on="1"/>
        <pt x="-161" y="-104" on="1"/>
        <pt x="-161" y="-181" on="1"/>
        <pt x="119" y="-181" on="1"/>
        <pt x="119" y="424" on="1"/>
        <pt x="20" y="424" on="1"/>
        <pt x="20" y="469" on="1"/>
      </contour>
      <contour>
        <pt x="293" y="542" on="1"/>
        <pt x="112" y="542" on="1"/>
        <pt x="112" y="695" on="1"/>
        <pt x="293" y="695" on="1"/>
      </contour>
    </TTGlyph>
    <TTGlyph name="k" xMin="20" yMin="0" xMax="757" yMax="695">
      <contour>
        <pt x="757" y="45" on="1"/>
        <pt x="757" y="0" on="1"/>
        <pt x="513" y="0" on="1"/>
        <pt x="513" y="45" on="1"/>
        <pt x="590" y="45" on="1"/>
        <pt x="471" y="212" on="1"/>
        <pt x="286" y="212" on="1"/>
        <pt x="286" y="45" on="1"/>
        <pt x="386" y="45" on="1"/>
        <pt x="386" y="0" on="1"/>
        <pt x="20" y="0" on="1"/>
        <pt x="20" y="45" on="1"/>
        <pt x="119" y="45" on="1"/>
        <pt x="119" y="650" on="1"/>
        <pt x="20" y="650" on="1"/>
        <pt x="20" y="695" on="1"/>
        <pt x="286" y="695" on="1"/>
        <pt x="286" y="257" on="1"/>
        <pt x="470" y="257" on="1"/>
        <pt x="581" y="424" on="1"/>
        <pt x="500" y="424" on="1"/>
        <pt x="500" y="469" on="1"/>
        <pt x="744" y="469" on="1"/>
        <pt x="744" y="424" on="1"/>
        <pt x="635" y="424" on="1"/>
        <pt x="510" y="236" on="1"/>
        <pt x="646" y="45" on="1"/>
      </contour>
    </TTGlyph>
    <TTGlyph name="l" xMin="20" yMin="0" xMax="385" yMax="695">
      <contour>
        <pt x="286" y="45" on="1"/>
        <pt x="385" y="45" on="1"/>
        <pt x="385" y="0" on="1"/>
        <pt x="20" y="0" on="1"/>
        <pt x="20" y="45" on="1"/>
        <pt x="119" y="45" on="1"/>
        <pt x="119" y="650" on="1"/>
        <pt x="20" y="650" on="1"/>
        <pt x="20" y="695" on="1"/>
        <pt x="286" y="695" on="1"/>
      </contour>
    </TTGlyph>
    <TTGlyph name="less" xMin="37" yMin="75" xMax="570" yMax="613">
      <contour>
        <pt x="570" y="563" on="1"/>
        <pt x="272" y="412" on="1"/>
        <pt x="570" y="261" on="1"/>
        <pt x="570" y="75" on="1"/>
        <pt x="37" y="344" on="1"/>
        <pt x="570" y="613" on="1"/>
      </contour>
    </TTGlyph>
    <TTGlyph name="logicalnot" xMin="54" yMin="252" xMax="533" yMax="497">
      <contour>
        <pt x="533" y="497" on="1"/>
        <pt x="533" y="252" on="1"/>
        <pt x="488" y="252" on="1"/>
        <pt x="488" y="344" on="1"/>
        <pt x="54" y="344" on="1"/>
        <pt x="54" y="497" on="1"/>
      </contour>
    </TTGlyph>
    <TTGlyph name="m" xMin="35" yMin="0" xMax="1180" yMax="469">
      <contour>
        <pt x="1180" y="45" on="1"/>
        <pt x="1180" y="0" on="1"/>
        <pt x="921" y="0" on="1"/>
        <pt x="921" y="45" on="1"/>
        <pt x="1028" y="45" on="1"/>
        <pt x="1028" y="424" on="1"/>
        <pt x="683" y="424" on="1"/>
        <pt x="683" y="45" on="1"/>
        <pt x="790" y="45" on="1"/>
        <pt x="790" y="0" on="1"/>
        <pt x="531" y="0" on="1"/>
        <pt x="531" y="45" on="1"/>
        <pt x="638" y="45" on="1"/>
        <pt x="638" y="424" on="1"/>
        <pt x="301" y="424" on="1"/>
        <pt x="301" y="45" on="1"/>
        <pt x="400" y="45" on="1"/>
        <pt x="400" y="0" on="1"/>
        <pt x="35" y="0" on="1"/>
        <pt x="35" y="45" on="1"/>
        <pt x="134" y="45" on="1"/>
        <pt x="134" y="424" on="1"/>
        <pt x="35" y="424" on="1"/>
        <pt x="35" y="469" on="1"/>
        <pt x="1073" y="469" on="1"/>
        <pt x="1073" y="45" on="1"/>
      </contour>
    </TTGlyph>
    <TTGlyph name="minus" xMin="59" yMin="256" xMax="526" yMax="409">
      <contour>
        <pt x="526" y="256" on="1"/>
        <pt x="59" y="256" on="1"/>
        <pt x="59" y="409" on="1"/>
        <pt x="526" y="409" on="1"/>
      </contour>
    </TTGlyph>
    <TTGlyph name="mu" xMin="-39" yMin="-170" xMax="976" yMax="695">
      <contour>
        <pt x="976" y="695" on="1"/>
        <pt x="976" y="650" on="1"/>
        <pt x="877" y="650" on="1"/>
        <pt x="877" y="0" on="1"/>
        <pt x="227" y="0" on="1"/>
        <pt x="227" y="-125" on="1"/>
        <pt x="326" y="-125" on="1"/>
        <pt x="326" y="-170" on="1"/>
        <pt x="-39" y="-170" on="1"/>
        <pt x="-39" y="-125" on="1"/>
        <pt x="60" y="-125" on="1"/>
        <pt x="60" y="650" on="1"/>
        <pt x="-39" y="650" on="1"/>
        <pt x="-39" y="695" on="1"/>
        <pt x="326" y="695" on="1"/>
        <pt x="326" y="650" on="1"/>
        <pt x="227" y="650" on="1"/>
        <pt x="227" y="45" on="1"/>
        <pt x="832" y="45" on="1"/>
        <pt x="832" y="650" on="1"/>
        <pt x="732" y="650" on="1"/>
        <pt x="732" y="695" on="1"/>
      </contour>
    </TTGlyph>
    <TTGlyph name="multiply" xMin="48" yMin="125" xMax="762" yMax="539">
      <contour>
        <pt x="762" y="125" on="1"/>
        <pt x="512" y="125" on="1"/>
        <pt x="355" y="265" on="1"/>
        <pt x="173" y="125" on="1"/>
        <pt x="98" y="125" on="1"/>
        <pt x="321" y="296" on="1"/>
        <pt x="48" y="539" on="1"/>
        <pt x="298" y="539" on="1"/>
        <pt x="455" y="400" on="1"/>
        <pt x="638" y="539" on="1"/>
        <pt x="713" y="539" on="1"/>
        <pt x="490" y="369" on="1"/>
      </contour>
    </TTGlyph>
    <TTGlyph name="n" xMin="35" yMin="0" xMax="865" yMax="469">
      <contour>
        <pt x="35" y="469" on="1"/>
        <pt x="758" y="469" on="1"/>
        <pt x="758" y="45" on="1"/>
        <pt x="865" y="45" on="1"/>
        <pt x="865" y="0" on="1"/>
        <pt x="606" y="0" on="1"/>
        <pt x="606" y="45" on="1"/>
        <pt x="713" y="45" on="1"/>
        <pt x="713" y="424" on="1"/>
        <pt x="301" y="424" on="1"/>
        <pt x="301" y="45" on="1"/>
        <pt x="400" y="45" on="1"/>
        <pt x="400" y="0" on="1"/>
        <pt x="35" y="0" on="1"/>
        <pt x="35" y="45" on="1"/>
        <pt x="134" y="45" on="1"/>
        <pt x="134" y="424" on="1"/>
        <pt x="35" y="424" on="1"/>
      </contour>
    </TTGlyph>
    <TTGlyph name="nine" xMin="62" yMin="0" xMax="878" yMax="695">
      <contour>
        <pt x="107" y="185" on="1"/>
        <pt x="107" y="45" on="1"/>
        <pt x="711" y="45" on="1"/>
        <pt x="711" y="325" on="1"/>
        <pt x="62" y="325" on="1"/>
        <pt x="62" y="695" on="1"/>
        <pt x="878" y="695" on="1"/>
        <pt x="878" y="0" on="1"/>
        <pt x="62" y="0" on="1"/>
        <pt x="62" y="185" on="1"/>
      </contour>
      <contour>
        <pt x="711" y="370" on="1"/>
        <pt x="711" y="650" on="1"/>
        <pt x="107" y="650" on="1"/>
        <pt x="107" y="370" on="1"/>
      </contour>
    </TTGlyph>
    <TTGlyph name="ntilde" xMin="35" yMin="0" xMax="865" yMax="710">
      <component glyphName="n" x="0" y="0" flags="0x1204"/>
      <component glyphName="tilde" x="83" y="0" flags="0x1004"/>
    </TTGlyph>
    <TTGlyph name="numbersign" xMin="52" yMin="56" xMax="805" yMax="597">
      <contour>
        <pt x="686" y="403" on="1"/>
        <pt x="686" y="249" on="1"/>
        <pt x="805" y="249" on="1"/>
        <pt x="805" y="204" on="1"/>
        <pt x="686" y="204" on="1"/>
        <pt x="686" y="56" on="1"/>
        <pt x="519" y="56" on="1"/>
        <pt x="519" y="204" on="1"/>
        <pt x="337" y="204" on="1"/>
        <pt x="337" y="56" on="1"/>
        <pt x="170" y="56" on="1"/>
        <pt x="170" y="204" on="1"/>
        <pt x="52" y="204" on="1"/>
        <pt x="52" y="249" on="1"/>
        <pt x="170" y="249" on="1"/>
        <pt x="170" y="403" on="1"/>
        <pt x="52" y="403" on="1"/>
        <pt x="52" y="448" on="1"/>
        <pt x="170" y="448" on="1"/>
        <pt x="170" y="597" on="1"/>
        <pt x="337" y="597" on="1"/>
        <pt x="337" y="448" on="1"/>
        <pt x="519" y="448" on="1"/>
        <pt x="519" y="597" on="1"/>
        <pt x="686" y="597" on="1"/>
        <pt x="686" y="448" on="1"/>
        <pt x="805" y="448" on="1"/>
        <pt x="805" y="403" on="1"/>
      </contour>
      <contour>
        <pt x="519" y="249" on="1"/>
        <pt x="519" y="403" on="1"/>
        <pt x="337" y="403" on="1"/>
        <pt x="337" y="249" on="1"/>
      </contour>
    </TTGlyph>
    <TTGlyph name="o" xMin="60" yMin="0" xMax="684" yMax="469">
      <contour>
        <pt x="684" y="0" on="1"/>
        <pt x="60" y="0" on="1"/>
        <pt x="60" y="469" on="1"/>
        <pt x="684" y="469" on="1"/>
      </contour>
      <contour>
        <pt x="639" y="424" on="1"/>
        <pt x="227" y="424" on="1"/>
        <pt x="227" y="45" on="1"/>
        <pt x="639" y="45" on="1"/>
      </contour>
    </TTGlyph>
    <TTGlyph name="oacute" xMin="60" yMin="0" xMax="684" yMax="710">
      <component glyphName="o" x="0" y="0" flags="0x1004"/>
      <component glyphName="acute" x="179" y="0" flags="0x1004"/>
    </TTGlyph>
    <TTGlyph name="ocircumflex" xMin="60" yMin="0" xMax="684" yMax="710">
      <component glyphName="o" x="0" y="0" flags="0x1004"/>
      <component glyphName="circumflex" x="110" y="0" flags="0x1004"/>
    </TTGlyph>
    <TTGlyph name="odieresis" xMin="60" yMin="0" xMax="684" yMax="688">
      <component glyphName="o" x="0" y="0" flags="0x1004"/>
      <component glyphName="dieresis" x="85" y="0" flags="0x1004"/>
    </TTGlyph>
    <TTGlyph name="oe" xMin="60" yMin="0" xMax="1263" yMax="469">
      <contour>
        <pt x="60" y="469" on="1"/>
        <pt x="1263" y="469" on="1"/>
        <pt x="1263" y="212" on="1"/>
        <pt x="806" y="212" on="1"/>
        <pt x="806" y="45" on="1"/>
        <pt x="1218" y="45" on="1"/>
        <pt x="1218" y="122" on="1"/>
        <pt x="1263" y="122" on="1"/>
        <pt x="1263" y="0" on="1"/>
        <pt x="60" y="0" on="1"/>
      </contour>
      <contour>
        <pt x="639" y="424" on="1"/>
        <pt x="227" y="424" on="1"/>
        <pt x="227" y="45" on="1"/>
        <pt x="639" y="45" on="1"/>
      </contour>
      <contour>
        <pt x="806" y="424" on="1"/>
        <pt x="806" y="257" on="1"/>
        <pt x="1218" y="257" on="1"/>
        <pt x="1218" y="424" on="1"/>
      </contour>
    </TTGlyph>
    <TTGlyph name="ograve" xMin="60" yMin="0" xMax="684" yMax="710">
      <component glyphName="o" x="0" y="0" flags="0x1004"/>
      <component glyphName="grave" x="136" y="0" flags="0x1004"/>
    </TTGlyph>
    <TTGlyph name="one" xMin="34" yMin="0" xMax="652" yMax="695">
      <contour>
        <pt x="439" y="45" on="1"/>
        <pt x="652" y="45" on="1"/>
        <pt x="652" y="0" on="1"/>
        <pt x="34" y="0" on="1"/>
        <pt x="34" y="45" on="1"/>
        <pt x="272" y="45" on="1"/>
        <pt x="272" y="650" on="1"/>
        <pt x="34" y="650" on="1"/>
        <pt x="34" y="695" on="1"/>
        <pt x="439" y="695" on="1"/>
      </contour>
    </TTGlyph>
    <TTGlyph name="onehalf" xMin="48" yMin="-44" xMax="1214" yMax="738">
      <component glyphName="onesuperior" x="-14" y="0" flags="0x1004"/>
      <component glyphName="fraction" x="218" y="0" flags="0x1004"/>
      <component glyphName="twosuperior" x="719" y="-319" flags="0x1004"/>
    </TTGlyph>
    <TTGlyph name="onequarter" xMin="47" yMin="-44" xMax="1214" yMax="738">
      <contour>
        <pt x="1083" y="375" on="1"/>
        <pt x="1214" y="375" on="1"/>
        <pt x="1214" y="0" on="1"/>
        <pt x="1083" y="0" on="1"/>
        <pt x="1083" y="165" on="1"/>
        <pt x="784" y="165" on="1"/>
        <pt x="784" y="375" on="1"/>
        <pt x="829" y="375" on="1"/>
        <pt x="829" y="210" on="1"/>
        <pt x="1083" y="210" on="1"/>
      </contour>
      <contour>
        <pt x="379" y="365" on="1"/>
        <pt x="379" y="320" on="1"/>
        <pt x="47" y="320" on="1"/>
        <pt x="47" y="365" on="1"/>
        <pt x="159" y="365" on="1"/>
        <pt x="159" y="650" on="1"/>
        <pt x="47" y="650" on="1"/>
        <pt x="47" y="695" on="1"/>
        <pt x="290" y="695" on="1"/>
        <pt x="290" y="365" on="1"/>
      </contour>
      <contour>
        <pt x="963" y="738" on="1"/>
        <pt x="363" y="-44" on="1"/>
        <pt x="193" y="-44" on="1"/>
        <pt x="793" y="738" on="1"/>
      </contour>
    </TTGlyph>
    <TTGlyph name="onesuperior" xMin="62" yMin="320" xMax="394" yMax="695">
      <contour>
        <pt x="394" y="365" on="1"/>
        <pt x="394" y="320" on="1"/>
        <pt x="62" y="320" on="1"/>
        <pt x="62" y="365" on="1"/>
        <pt x="174" y="365" on="1"/>
        <pt x="174" y="650" on="1"/>
        <pt x="62" y="650" on="1"/>
        <pt x="62" y="695" on="1"/>
        <pt x="305" y="695" on="1"/>
        <pt x="305" y="365" on="1"/>
      </contour>
    </TTGlyph>
    <TTGlyph name="ordfeminine" xMin="66" yMin="416" xMax="429" yMax="661">
      <contour>
        <pt x="429" y="461" on="1"/>
        <pt x="429" y="416" on="1"/>
        <pt x="316" y="416" on="1"/>
        <pt x="316" y="461" on="1"/>
        <pt x="350" y="461" on="1"/>
        <pt x="350" y="515" on="1"/>
        <pt x="212" y="515" on="1"/>
        <pt x="212" y="461" on="1"/>
        <pt x="239" y="461" on="1"/>
        <pt x="239" y="416" on="1"/>
        <pt x="66" y="416" on="1"/>
        <pt x="66" y="461" on="1"/>
        <pt x="95" y="461" on="1"/>
        <pt x="95" y="616" on="1"/>
        <pt x="66" y="616" on="1"/>
        <pt x="66" y="661" on="1"/>
        <pt x="396" y="661" on="1"/>
        <pt x="396" y="461" on="1"/>
      </contour>
      <contour>
        <pt x="350" y="561" on="1"/>
        <pt x="350" y="616" on="1"/>
        <pt x="212" y="616" on="1"/>
        <pt x="212" y="561" on="1"/>
      </contour>
    </TTGlyph>
    <TTGlyph name="ordmasculine" xMin="65" yMin="416" xMax="366" yMax="661">
      <contour>
        <pt x="366" y="661" on="1"/>
        <pt x="366" y="416" on="1"/>
        <pt x="65" y="416" on="1"/>
        <pt x="65" y="661" on="1"/>
      </contour>
      <contour>
        <pt x="320" y="616" on="1"/>
        <pt x="182" y="616" on="1"/>
        <pt x="182" y="461" on="1"/>
        <pt x="320" y="461" on="1"/>
      </contour>
    </TTGlyph>
    <TTGlyph name="oslash" xMin="60" yMin="-106" xMax="760" yMax="538">
      <contour>
        <pt x="760" y="505" on="1"/>
        <pt x="684" y="435" on="1"/>
        <pt x="684" y="0" on="1"/>
        <pt x="211" y="0" on="1"/>
        <pt x="96" y="-106" on="1"/>
        <pt x="66" y="-73" on="1"/>
        <pt x="145" y="0" on="1"/>
        <pt x="60" y="0" on="1"/>
        <pt x="60" y="469" on="1"/>
        <pt x="655" y="469" on="1"/>
        <pt x="731" y="538" on="1"/>
      </contour>
      <contour>
        <pt x="227" y="76" on="1"/>
        <pt x="606" y="424" on="1"/>
        <pt x="227" y="424" on="1"/>
      </contour>
      <contour>
        <pt x="639" y="393" on="1"/>
        <pt x="260" y="45" on="1"/>
        <pt x="639" y="45" on="1"/>
      </contour>
    </TTGlyph>
    <TTGlyph name="otilde" xMin="60" yMin="0" xMax="716" yMax="710">
      <component glyphName="o" x="0" y="0" flags="0x1004"/>
      <component glyphName="tilde" x="35" y="0" flags="0x1004"/>
    </TTGlyph>
    <TTGlyph name="p" xMin="20" yMin="-226" xMax="757" yMax="469">
      <contour>
        <pt x="20" y="-181" on="1"/>
        <pt x="119" y="-181" on="1"/>
        <pt x="119" y="424" on="1"/>
        <pt x="20" y="424" on="1"/>
        <pt x="20" y="469" on="1"/>
        <pt x="757" y="469" on="1"/>
        <pt x="757" y="0" on="1"/>
        <pt x="286" y="0" on="1"/>
        <pt x="286" y="-181" on="1"/>
        <pt x="385" y="-181" on="1"/>
        <pt x="385" y="-226" on="1"/>
        <pt x="20" y="-226" on="1"/>
      </contour>
      <contour>
        <pt x="712" y="424" on="1"/>
        <pt x="286" y="424" on="1"/>
        <pt x="286" y="45" on="1"/>
        <pt x="712" y="45" on="1"/>
      </contour>
    </TTGlyph>
    <TTGlyph name="paragraph" xMin="50" yMin="-122" xMax="688" yMax="695">
      <contour>
        <pt x="589" y="650" on="1"/>
        <pt x="589" y="-122" on="1"/>
        <pt x="543" y="-122" on="1"/>
        <pt x="543" y="650" on="1"/>
        <pt x="467" y="650" on="1"/>
        <pt x="467" y="-122" on="1"/>
        <pt x="422" y="-122" on="1"/>
        <pt x="422" y="325" on="1"/>
        <pt x="50" y="325" on="1"/>
        <pt x="50" y="695" on="1"/>
        <pt x="688" y="695" on="1"/>
        <pt x="688" y="650" on="1"/>
      </contour>
    </TTGlyph>
    <TTGlyph name="parenleft" xMin="48" yMin="-99" xMax="384" yMax="767">
      <contour>
        <pt x="215" y="38" on="1"/>
        <pt x="384" y="-99" on="1"/>
        <pt x="312" y="-99" on="1"/>
        <pt x="48" y="115" on="1"/>
        <pt x="48" y="554" on="1"/>
        <pt x="312" y="767" on="1"/>
        <pt x="384" y="767" on="1"/>
        <pt x="215" y="631" on="1"/>
      </contour>
    </TTGlyph>
    <TTGlyph name="parenright" xMin="1" yMin="-99" xMax="337" yMax="767">
      <contour>
        <pt x="170" y="631" on="1"/>
        <pt x="1" y="767" on="1"/>
        <pt x="73" y="767" on="1"/>
        <pt x="337" y="554" on="1"/>
        <pt x="337" y="115" on="1"/>
        <pt x="73" y="-99" on="1"/>
        <pt x="1" y="-99" on="1"/>
        <pt x="170" y="38" on="1"/>
      </contour>
    </TTGlyph>
    <TTGlyph name="percent" xMin="44" yMin="0" xMax="883" yMax="695">
      <contour>
        <pt x="883" y="695" on="1"/>
        <pt x="251" y="0" on="1"/>
        <pt x="44" y="0" on="1"/>
        <pt x="676" y="695" on="1"/>
      </contour>
      <contour>
        <pt x="71" y="695" on="1"/>
        <pt x="344" y="695" on="1"/>
        <pt x="344" y="497" on="1"/>
        <pt x="71" y="497" on="1"/>
      </contour>
      <contour>
        <pt x="584" y="198" on="1"/>
        <pt x="857" y="198" on="1"/>
        <pt x="857" y="0" on="1"/>
        <pt x="584" y="0" on="1"/>
      </contour>
    </TTGlyph>
    <TTGlyph name="period" xMin="59" yMin="0" xMax="251" yMax="153">
      <contour>
        <pt x="251" y="0" on="1"/>
        <pt x="59" y="0" on="1"/>
        <pt x="59" y="153" on="1"/>
        <pt x="251" y="153" on="1"/>
      </contour>
    </TTGlyph>
    <TTGlyph name="periodcentered" xMin="59" yMin="273" xMax="251" yMax="426">
      <contour>
        <pt x="251" y="273" on="1"/>
        <pt x="59" y="273" on="1"/>
        <pt x="59" y="426" on="1"/>
        <pt x="251" y="426" on="1"/>
      </contour>
    </TTGlyph>
    <TTGlyph name="perthousand" xMin="44" yMin="0" xMax="1193" yMax="695">
      <contour>
        <pt x="882" y="695" on="1"/>
        <pt x="250" y="0" on="1"/>
        <pt x="44" y="0" on="1"/>
        <pt x="676" y="695" on="1"/>
      </contour>
      <contour>
        <pt x="71" y="695" on="1"/>
        <pt x="344" y="695" on="1"/>
        <pt x="344" y="497" on="1"/>
        <pt x="71" y="497" on="1"/>
      </contour>
      <contour>
        <pt x="583" y="198" on="1"/>
        <pt x="856" y="198" on="1"/>
        <pt x="856" y="0" on="1"/>
        <pt x="583" y="0" on="1"/>
      </contour>
      <contour>
        <pt x="920" y="198" on="1"/>
        <pt x="1193" y="198" on="1"/>
        <pt x="1193" y="0" on="1"/>
        <pt x="920" y="0" on="1"/>
      </contour>
    </TTGlyph>
    <TTGlyph name="plus" xMin="50" yMin="99" xMax="517" yMax="566">
      <contour>
        <pt x="517" y="409" on="1"/>
        <pt x="517" y="256" on="1"/>
        <pt x="306" y="256" on="1"/>
        <pt x="306" y="99" on="1"/>
        <pt x="261" y="99" on="1"/>
        <pt x="261" y="256" on="1"/>
        <pt x="50" y="256" on="1"/>
        <pt x="50" y="409" on="1"/>
        <pt x="261" y="409" on="1"/>
        <pt x="261" y="566" on="1"/>
        <pt x="306" y="566" on="1"/>
        <pt x="306" y="409" on="1"/>
      </contour>
    </TTGlyph>
    <TTGlyph name="plusminus" xMin="57" yMin="0" xMax="524" yMax="666">
      <contour>
        <pt x="524" y="509" on="1"/>
        <pt x="524" y="356" on="1"/>
        <pt x="313" y="356" on="1"/>
        <pt x="313" y="199" on="1"/>
        <pt x="268" y="199" on="1"/>
        <pt x="268" y="356" on="1"/>
        <pt x="57" y="356" on="1"/>
        <pt x="57" y="509" on="1"/>
        <pt x="268" y="509" on="1"/>
        <pt x="268" y="666" on="1"/>
        <pt x="313" y="666" on="1"/>
        <pt x="313" y="509" on="1"/>
      </contour>
      <contour>
        <pt x="524" y="0" on="1"/>
        <pt x="57" y="0" on="1"/>
        <pt x="57" y="153" on="1"/>
        <pt x="524" y="153" on="1"/>
      </contour>
    </TTGlyph>
    <TTGlyph name="q" xMin="60" yMin="-226" xMax="797" yMax="469">
      <contour>
        <pt x="797" y="-226" on="1"/>
        <pt x="432" y="-226" on="1"/>
        <pt x="432" y="-181" on="1"/>
        <pt x="531" y="-181" on="1"/>
        <pt x="531" y="0" on="1"/>
        <pt x="60" y="0" on="1"/>
        <pt x="60" y="469" on="1"/>
        <pt x="698" y="469" on="1"/>
        <pt x="698" y="-181" on="1"/>
        <pt x="797" y="-181" on="1"/>
      </contour>
      <contour>
        <pt x="105" y="45" on="1"/>
        <pt x="531" y="45" on="1"/>
        <pt x="531" y="424" on="1"/>
        <pt x="105" y="424" on="1"/>
      </contour>
    </TTGlyph>
    <TTGlyph name="question" xMin="44" yMin="0" xMax="674" yMax="695">
      <contour>
        <pt x="674" y="695" on="1"/>
        <pt x="674" y="325" on="1"/>
        <pt x="411" y="325" on="1"/>
        <pt x="411" y="212" on="1"/>
        <pt x="244" y="212" on="1"/>
        <pt x="244" y="370" on="1"/>
        <pt x="507" y="370" on="1"/>
        <pt x="507" y="650" on="1"/>
        <pt x="89" y="650" on="1"/>
        <pt x="89" y="510" on="1"/>
        <pt x="44" y="510" on="1"/>
        <pt x="44" y="695" on="1"/>
      </contour>
      <contour>
        <pt x="423" y="0" on="1"/>
        <pt x="231" y="0" on="1"/>
        <pt x="231" y="153" on="1"/>
        <pt x="423" y="153" on="1"/>
      </contour>
    </TTGlyph>
    <TTGlyph name="questiondown" xMin="52" yMin="-195" xMax="683" yMax="500">
      <component glyphName="question" x="726" y="500" scale="-0.999938964844" flags="0x1004"/>
    </TTGlyph>
    <TTGlyph name="quotedbl" xMin="49" yMin="440" xMax="522" yMax="754">
      <contour>
        <pt x="252" y="754" on="1"/>
        <pt x="222" y="440" on="1"/>
        <pt x="79" y="440" on="1"/>
        <pt x="49" y="754" on="1"/>
      </contour>
      <contour>
        <pt x="522" y="754" on="1"/>
        <pt x="492" y="440" on="1"/>
        <pt x="349" y="440" on="1"/>
        <pt x="319" y="754" on="1"/>
      </contour>
    </TTGlyph>
    <TTGlyph name="quotedblbase" xMin="-41" yMin="-147" xMax="580" yMax="153">
      <contour>
        <pt x="303" y="153" on="1"/>
        <pt x="147" y="-147" on="1"/>
        <pt x="-41" y="-147" on="1"/>
        <pt x="115" y="153" on="1"/>
      </contour>
      <contour>
        <pt x="580" y="153" on="1"/>
        <pt x="424" y="-147" on="1"/>
        <pt x="236" y="-147" on="1"/>
        <pt x="392" y="153" on="1"/>
      </contour>
    </TTGlyph>
    <TTGlyph name="quotedblleft" xMin="-13" yMin="454" xMax="608" yMax="754">
      <contour>
        <pt x="452" y="754" on="1"/>
        <pt x="608" y="454" on="1"/>
        <pt x="420" y="454" on="1"/>
        <pt x="264" y="754" on="1"/>
      </contour>
      <contour>
        <pt x="175" y="754" on="1"/>
        <pt x="331" y="454" on="1"/>
        <pt x="143" y="454" on="1"/>
        <pt x="-13" y="754" on="1"/>
      </contour>
    </TTGlyph>
    <TTGlyph name="quotedblright" xMin="44" yMin="454" xMax="665" yMax="754">
      <contour>
        <pt x="388" y="754" on="1"/>
        <pt x="232" y="454" on="1"/>
        <pt x="44" y="454" on="1"/>
        <pt x="200" y="754" on="1"/>
      </contour>
      <contour>
        <pt x="665" y="754" on="1"/>
        <pt x="509" y="454" on="1"/>
        <pt x="321" y="454" on="1"/>
        <pt x="477" y="754" on="1"/>
      </contour>
    </TTGlyph>
    <TTGlyph name="quoteleft" xMin="-13" yMin="454" xMax="331" yMax="754">
      <contour>
        <pt x="175" y="754" on="1"/>
        <pt x="331" y="454" on="1"/>
        <pt x="143" y="454" on="1"/>
        <pt x="-13" y="754" on="1"/>
      </contour>
    </TTGlyph>
    <TTGlyph name="quoteright" xMin="44" yMin="454" xMax="388" yMax="754">
      <contour>
        <pt x="388" y="754" on="1"/>
        <pt x="232" y="454" on="1"/>
        <pt x="44" y="454" on="1"/>
        <pt x="200" y="754" on="1"/>
      </contour>
    </TTGlyph>
    <TTGlyph name="quotesinglbase" xMin="-41" yMin="-147" xMax="303" yMax="153">
      <contour>
        <pt x="303" y="153" on="1"/>
        <pt x="147" y="-147" on="1"/>
        <pt x="-41" y="-147" on="1"/>
        <pt x="115" y="153" on="1"/>
      </contour>
    </TTGlyph>
    <TTGlyph name="quotesingle" xMin="44" yMin="454" xMax="388" yMax="754">
      <contour>
        <pt x="388" y="754" on="1"/>
        <pt x="232" y="454" on="1"/>
        <pt x="44" y="454" on="1"/>
        <pt x="200" y="754" on="1"/>
      </contour>
    </TTGlyph>
    <TTGlyph name="r" xMin="35" yMin="0" xMax="671" yMax="469">
      <contour>
        <pt x="671" y="469" on="1"/>
        <pt x="671" y="348" on="1"/>
        <pt x="626" y="348" on="1"/>
        <pt x="626" y="424" on="1"/>
        <pt x="301" y="424" on="1"/>
        <pt x="301" y="45" on="1"/>
        <pt x="400" y="45" on="1"/>
        <pt x="400" y="0" on="1"/>
        <pt x="35" y="0" on="1"/>
        <pt x="35" y="45" on="1"/>
        <pt x="134" y="45" on="1"/>
        <pt x="134" y="424" on="1"/>
        <pt x="35" y="424" on="1"/>
        <pt x="35" y="469" on="1"/>
      </contour>
    </TTGlyph>
    <TTGlyph name="registered" xMin="69" yMin="30" xMax="755" yMax="663">
      <contour>
        <pt x="755" y="663" on="1"/>
        <pt x="755" y="30" on="1"/>
        <pt x="69" y="30" on="1"/>
        <pt x="69" y="663" on="1"/>
      </contour>
      <contour>
        <pt x="710" y="618" on="1"/>
        <pt x="114" y="618" on="1"/>
        <pt x="114" y="75" on="1"/>
        <pt x="710" y="75" on="1"/>
      </contour>
      <contour>
        <pt x="612" y="338" on="1"/>
        <pt x="652" y="307" on="0"/>
        <pt x="652" y="256" on="1"/>
        <pt x="652" y="133" on="1"/>
        <pt x="606" y="133" on="1"/>
        <pt x="606" y="256" on="1"/>
        <pt x="606" y="281" on="0"/>
        <pt x="572" y="315" on="0"/>
        <pt x="548" y="315" on="1"/>
        <pt x="339" y="315" on="1"/>
        <pt x="339" y="133" on="1"/>
        <pt x="172" y="133" on="1"/>
        <pt x="172" y="560" on="1"/>
        <pt x="652" y="560" on="1"/>
        <pt x="652" y="420" on="1"/>
        <pt x="652" y="369" on="0"/>
      </contour>
      <contour>
        <pt x="339" y="515" on="1"/>
        <pt x="339" y="361" on="1"/>
        <pt x="548" y="361" on="1"/>
        <pt x="572" y="361" on="0"/>
        <pt x="606" y="395" on="0"/>
        <pt x="606" y="420" on="1"/>
        <pt x="606" y="515" on="1"/>
      </contour>
    </TTGlyph>
    <TTGlyph name="ring" xMin="154" yMin="546" xMax="367" yMax="722">
      <contour>
        <pt x="367" y="546" on="1"/>
        <pt x="154" y="546" on="1"/>
        <pt x="154" y="722" on="1"/>
        <pt x="367" y="722" on="1"/>
      </contour>
      <contour>
        <pt x="322" y="677" on="1"/>
        <pt x="199" y="677" on="1"/>
        <pt x="199" y="591" on="1"/>
        <pt x="322" y="591" on="1"/>
      </contour>
    </TTGlyph>
    <TTGlyph name="s" xMin="55" yMin="0" xMax="679" yMax="469">
      <contour>
        <pt x="679" y="469" on="1"/>
        <pt x="679" y="347" on="1"/>
        <pt x="634" y="347" on="1"/>
        <pt x="634" y="424" on="1"/>
        <pt x="222" y="424" on="1"/>
        <pt x="222" y="257" on="1"/>
        <pt x="679" y="257" on="1"/>
        <pt x="679" y="0" on="1"/>
        <pt x="55" y="0" on="1"/>
        <pt x="55" y="122" on="1"/>
        <pt x="100" y="122" on="1"/>
        <pt x="100" y="45" on="1"/>
        <pt x="512" y="45" on="1"/>
        <pt x="512" y="212" on="1"/>
        <pt x="55" y="212" on="1"/>
        <pt x="55" y="469" on="1"/>
      </contour>
    </TTGlyph>
    <TTGlyph name="scaron" xMin="55" yMin="0" xMax="679" yMax="710">
      <component glyphName="s" x="0" y="0" flags="0x1204"/>
      <component glyphName="caron" x="116" y="0" flags="0x1004"/>
    </TTGlyph>
    <TTGlyph name="section" xMin="63" yMin="-163" xMax="701" yMax="695">
      <contour>
        <pt x="656" y="552" on="1"/>
        <pt x="656" y="650" on="1"/>
        <pt x="230" y="650" on="1"/>
        <pt x="230" y="454" on="1"/>
        <pt x="701" y="454" on="1"/>
        <pt x="701" y="168" on="1"/>
        <pt x="534" y="168" on="1"/>
        <pt x="534" y="409" on="1"/>
        <pt x="63" y="409" on="1"/>
        <pt x="63" y="695" on="1"/>
        <pt x="701" y="695" on="1"/>
        <pt x="701" y="552" on="1"/>
      </contour>
      <contour>
        <pt x="108" y="-20" on="1"/>
        <pt x="108" y="-118" on="1"/>
        <pt x="534" y="-118" on="1"/>
        <pt x="534" y="78" on="1"/>
        <pt x="63" y="78" on="1"/>
        <pt x="63" y="364" on="1"/>
        <pt x="230" y="364" on="1"/>
        <pt x="230" y="123" on="1"/>
        <pt x="701" y="123" on="1"/>
        <pt x="701" y="-163" on="1"/>
        <pt x="63" y="-163" on="1"/>
        <pt x="63" y="-20" on="1"/>
      </contour>
    </TTGlyph>
    <TTGlyph name="semicolon" xMin="-32" yMin="-147" xMax="312" yMax="554">
      <contour>
        <pt x="303" y="401" on="1"/>
        <pt x="111" y="401" on="1"/>
        <pt x="111" y="554" on="1"/>
        <pt x="303" y="554" on="1"/>
      </contour>
      <contour>
        <pt x="312" y="153" on="1"/>
        <pt x="156" y="-147" on="1"/>
        <pt x="-32" y="-147" on="1"/>
        <pt x="124" y="153" on="1"/>
      </contour>
    </TTGlyph>
    <TTGlyph name="seven" xMin="20" yMin="0" xMax="777" yMax="695">
      <contour>
        <pt x="777" y="0" on="1"/>
        <pt x="610" y="0" on="1"/>
        <pt x="610" y="650" on="1"/>
        <pt x="65" y="650" on="1"/>
        <pt x="65" y="510" on="1"/>
        <pt x="20" y="510" on="1"/>
        <pt x="20" y="695" on="1"/>
        <pt x="777" y="695" on="1"/>
      </contour>
    </TTGlyph>
    <TTGlyph name="six" xMin="66" yMin="0" xMax="882" yMax="695">
      <contour>
        <pt x="837" y="510" on="1"/>
        <pt x="837" y="650" on="1"/>
        <pt x="233" y="650" on="1"/>
        <pt x="233" y="370" on="1"/>
        <pt x="882" y="370" on="1"/>
        <pt x="882" y="0" on="1"/>
        <pt x="66" y="0" on="1"/>
        <pt x="66" y="695" on="1"/>
        <pt x="882" y="695" on="1"/>
        <pt x="882" y="510" on="1"/>
      </contour>
      <contour>
        <pt x="233" y="325" on="1"/>
        <pt x="233" y="45" on="1"/>
        <pt x="837" y="45" on="1"/>
        <pt x="837" y="325" on="1"/>
      </contour>
    </TTGlyph>
    <TTGlyph name="slash" xMin="27" yMin="-147" xMax="687" yMax="757">
      <contour>
        <pt x="687" y="757" on="1"/>
        <pt x="215" y="-147" on="1"/>
        <pt x="27" y="-147" on="1"/>
        <pt x="499" y="757" on="1"/>
      </contour>
    </TTGlyph>
    <TTGlyph name="sterling" xMin="50" yMin="0" xMax="803" yMax="695">
      <contour>
        <pt x="803" y="695" on="1"/>
        <pt x="803" y="510" on="1"/>
        <pt x="758" y="510" on="1"/>
        <pt x="758" y="650" on="1"/>
        <pt x="317" y="650" on="1"/>
        <pt x="317" y="296" on="1"/>
        <pt x="507" y="296" on="1"/>
        <pt x="507" y="251" on="1"/>
        <pt x="317" y="251" on="1"/>
        <pt x="317" y="45" on="1"/>
        <pt x="726" y="45" on="1"/>
        <pt x="726" y="0" on="1"/>
        <pt x="50" y="0" on="1"/>
        <pt x="50" y="45" on="1"/>
        <pt x="150" y="45" on="1"/>
        <pt x="150" y="251" on="1"/>
        <pt x="50" y="251" on="1"/>
        <pt x="50" y="296" on="1"/>
        <pt x="150" y="296" on="1"/>
        <pt x="150" y="695" on="1"/>
      </contour>
    </TTGlyph>
    <TTGlyph name="t" xMin="20" yMin="0" xMax="479" yMax="695">
      <contour>
        <pt x="479" y="45" on="1"/>
        <pt x="479" y="0" on="1"/>
        <pt x="119" y="0" on="1"/>
        <pt x="119" y="424" on="1"/>
        <pt x="20" y="424" on="1"/>
        <pt x="20" y="469" on="1"/>
        <pt x="119" y="469" on="1"/>
        <pt x="119" y="695" on="1"/>
        <pt x="286" y="695" on="1"/>
        <pt x="286" y="469" on="1"/>
        <pt x="479" y="469" on="1"/>
        <pt x="479" y="424" on="1"/>
        <pt x="286" y="424" on="1"/>
        <pt x="286" y="45" on="1"/>
      </contour>
    </TTGlyph>
    <TTGlyph name="thorn" xMin="-39" yMin="-226" xMax="698" yMax="695">
      <contour>
        <pt x="227" y="0" on="1"/>
        <pt x="227" y="-181" on="1"/>
        <pt x="326" y="-181" on="1"/>
        <pt x="326" y="-226" on="1"/>
        <pt x="-39" y="-226" on="1"/>
        <pt x="-39" y="-181" on="1"/>
        <pt x="60" y="-181" on="1"/>
        <pt x="60" y="650" on="1"/>
        <pt x="-39" y="650" on="1"/>
        <pt x="-39" y="695" on="1"/>
        <pt x="227" y="695" on="1"/>
        <pt x="227" y="469" on="1"/>
        <pt x="698" y="469" on="1"/>
        <pt x="698" y="0" on="1"/>
      </contour>
      <contour>
        <pt x="227" y="45" on="1"/>
        <pt x="653" y="45" on="1"/>
        <pt x="653" y="424" on="1"/>
        <pt x="227" y="424" on="1"/>
      </contour>
    </TTGlyph>
    <TTGlyph name="three" xMin="57" yMin="0" xMax="873" yMax="695">
      <contour>
        <pt x="57" y="510" on="1"/>
        <pt x="57" y="695" on="1"/>
        <pt x="873" y="695" on="1"/>
        <pt x="873" y="0" on="1"/>
        <pt x="57" y="0" on="1"/>
        <pt x="57" y="185" on="1"/>
        <pt x="102" y="185" on="1"/>
        <pt x="102" y="45" on="1"/>
        <pt x="706" y="45" on="1"/>
        <pt x="706" y="325" on="1"/>
        <pt x="219" y="325" on="1"/>
        <pt x="219" y="370" on="1"/>
        <pt x="706" y="370" on="1"/>
        <pt x="706" y="650" on="1"/>
        <pt x="102" y="650" on="1"/>
        <pt x="102" y="510" on="1"/>
      </contour>
    </TTGlyph>
    <TTGlyph name="threequarters" xMin="49" yMin="-44" xMax="1333" yMax="738">
      <contour>
        <pt x="1333" y="375" on="1"/>
        <pt x="1333" y="0" on="1"/>
        <pt x="1202" y="0" on="1"/>
        <pt x="1202" y="165" on="1"/>
        <pt x="903" y="165" on="1"/>
        <pt x="903" y="375" on="1"/>
        <pt x="948" y="375" on="1"/>
        <pt x="948" y="210" on="1"/>
        <pt x="1202" y="210" on="1"/>
        <pt x="1202" y="375" on="1"/>
      </contour>
      <contour>
        <pt x="1088" y="738" on="1"/>
        <pt x="488" y="-44" on="1"/>
        <pt x="318" y="-44" on="1"/>
        <pt x="918" y="738" on="1"/>
      </contour>
      <contour>
        <pt x="479" y="695" on="1"/>
        <pt x="479" y="320" on="1"/>
        <pt x="49" y="320" on="1"/>
        <pt x="49" y="425" on="1"/>
        <pt x="94" y="425" on="1"/>
        <pt x="94" y="365" on="1"/>
        <pt x="348" y="365" on="1"/>
        <pt x="348" y="485" on="1"/>
        <pt x="163" y="485" on="1"/>
        <pt x="163" y="530" on="1"/>
        <pt x="348" y="530" on="1"/>
        <pt x="348" y="650" on="1"/>
        <pt x="94" y="650" on="1"/>
        <pt x="94" y="590" on="1"/>
        <pt x="49" y="590" on="1"/>
        <pt x="49" y="695" on="1"/>
      </contour>
    </TTGlyph>
    <TTGlyph name="threesuperior" xMin="65" yMin="320" xMax="495" yMax="695">
      <contour>
        <pt x="495" y="695" on="1"/>
        <pt x="495" y="320" on="1"/>
        <pt x="65" y="320" on="1"/>
        <pt x="65" y="425" on="1"/>
        <pt x="110" y="425" on="1"/>
        <pt x="110" y="365" on="1"/>
        <pt x="364" y="365" on="1"/>
        <pt x="364" y="485" on="1"/>
        <pt x="179" y="485" on="1"/>
        <pt x="179" y="530" on="1"/>
        <pt x="364" y="530" on="1"/>
        <pt x="364" y="650" on="1"/>
        <pt x="110" y="650" on="1"/>
        <pt x="110" y="590" on="1"/>
        <pt x="65" y="590" on="1"/>
        <pt x="65" y="695" on="1"/>
      </contour>
    </TTGlyph>
    <TTGlyph name="tilde" xMin="66" yMin="546" xMax="681" yMax="710">
      <contour>
        <pt x="525" y="546" on="1"/>
        <pt x="391" y="546" on="1"/>
        <pt x="324" y="641" on="1"/>
        <pt x="233" y="546" on="1"/>
        <pt x="66" y="546" on="1"/>
        <pt x="190" y="710" on="1"/>
        <pt x="330" y="710" on="1"/>
        <pt x="403" y="607" on="1"/>
        <pt x="482" y="710" on="1"/>
        <pt x="681" y="710" on="1"/>
      </contour>
    </TTGlyph>
    <TTGlyph name="trademark" xMin="67" yMin="350" xMax="1484" yMax="695">
      <contour>
        <pt x="97" y="602" on="1"/>
        <pt x="67" y="602" on="1"/>
        <pt x="67" y="695" on="1"/>
        <pt x="589" y="695" on="1"/>
        <pt x="589" y="602" on="1"/>
        <pt x="559" y="602" on="1"/>
        <pt x="559" y="665" on="1"/>
        <pt x="404" y="665" on="1"/>
        <pt x="404" y="380" on="1"/>
        <pt x="473" y="380" on="1"/>
        <pt x="473" y="350" on="1"/>
        <pt x="184" y="350" on="1"/>
        <pt x="184" y="380" on="1"/>
        <pt x="252" y="380" on="1"/>
        <pt x="252" y="665" on="1"/>
        <pt x="97" y="665" on="1"/>
      </contour>
      <contour>
        <pt x="1416" y="380" on="1"/>
        <pt x="1484" y="380" on="1"/>
        <pt x="1484" y="350" on="1"/>
        <pt x="1196" y="350" on="1"/>
        <pt x="1196" y="380" on="1"/>
        <pt x="1264" y="380" on="1"/>
        <pt x="1264" y="627" on="1"/>
        <pt x="1072" y="352" on="1"/>
        <pt x="881" y="627" on="1"/>
        <pt x="881" y="380" on="1"/>
        <pt x="949" y="380" on="1"/>
        <pt x="949" y="350" on="1"/>
        <pt x="661" y="350" on="1"/>
        <pt x="661" y="380" on="1"/>
        <pt x="729" y="380" on="1"/>
        <pt x="729" y="665" on="1"/>
        <pt x="661" y="665" on="1"/>
        <pt x="661" y="695" on="1"/>
        <pt x="875" y="695" on="1"/>
        <pt x="1072" y="411" on="1"/>
        <pt x="1270" y="695" on="1"/>
        <pt x="1484" y="695" on="1"/>
        <pt x="1484" y="665" on="1"/>
        <pt x="1416" y="665" on="1"/>
      </contour>
    </TTGlyph>
    <TTGlyph name="two" xMin="62" yMin="0" xMax="878" yMax="695">
      <contour>
        <pt x="878" y="695" on="1"/>
        <pt x="878" y="325" on="1"/>
        <pt x="229" y="325" on="1"/>
        <pt x="229" y="45" on="1"/>
        <pt x="833" y="45" on="1"/>
        <pt x="833" y="185" on="1"/>
        <pt x="878" y="185" on="1"/>
        <pt x="878" y="0" on="1"/>
        <pt x="62" y="0" on="1"/>
        <pt x="62" y="370" on="1"/>
        <pt x="711" y="370" on="1"/>
        <pt x="711" y="650" on="1"/>
        <pt x="107" y="650" on="1"/>
        <pt x="107" y="510" on="1"/>
        <pt x="62" y="510" on="1"/>
        <pt x="62" y="695" on="1"/>
      </contour>
    </TTGlyph>
    <TTGlyph name="twosuperior" xMin="65" yMin="320" xMax="495" yMax="695">
      <contour>
        <pt x="195" y="485" on="1"/>
        <pt x="195" y="365" on="1"/>
        <pt x="450" y="365" on="1"/>
        <pt x="450" y="425" on="1"/>
        <pt x="495" y="425" on="1"/>
        <pt x="495" y="320" on="1"/>
        <pt x="65" y="320" on="1"/>
        <pt x="65" y="530" on="1"/>
        <pt x="364" y="530" on="1"/>
        <pt x="364" y="650" on="1"/>
        <pt x="110" y="650" on="1"/>
        <pt x="110" y="590" on="1"/>
        <pt x="65" y="590" on="1"/>
        <pt x="65" y="695" on="1"/>
        <pt x="495" y="695" on="1"/>
        <pt x="495" y="485" on="1"/>
      </contour>
    </TTGlyph>
    <TTGlyph name="u" xMin="20" yMin="0" xMax="850" yMax="469">
      <contour>
        <pt x="850" y="45" on="1"/>
        <pt x="850" y="0" on="1"/>
        <pt x="119" y="0" on="1"/>
        <pt x="119" y="424" on="1"/>
        <pt x="20" y="424" on="1"/>
        <pt x="20" y="469" on="1"/>
        <pt x="286" y="469" on="1"/>
        <pt x="286" y="45" on="1"/>
        <pt x="698" y="45" on="1"/>
        <pt x="698" y="424" on="1"/>
        <pt x="591" y="424" on="1"/>
        <pt x="591" y="469" on="1"/>
        <pt x="743" y="469" on="1"/>
        <pt x="743" y="45" on="1"/>
      </contour>
    </TTGlyph>
    <TTGlyph name="uacute" xMin="20" yMin="0" xMax="850" yMax="710">
      <component glyphName="u" x="0" y="0" flags="0x1204"/>
      <component glyphName="acute" x="246" y="0" flags="0x1004"/>
    </TTGlyph>
    <TTGlyph name="ucircumflex" xMin="20" yMin="0" xMax="850" yMax="710">
      <component glyphName="u" x="0" y="0" flags="0x1204"/>
      <component glyphName="circumflex" x="163" y="0" flags="0x1004"/>
    </TTGlyph>
    <TTGlyph name="udieresis" xMin="20" yMin="0" xMax="850" yMax="688">
      <component glyphName="u" x="0" y="0" flags="0x1204"/>
      <component glyphName="dieresis" x="136" y="0" flags="0x1004"/>
    </TTGlyph>
    <TTGlyph name="ugrave" xMin="20" yMin="0" xMax="850" yMax="710">
      <component glyphName="u" x="0" y="0" flags="0x1204"/>
      <component glyphName="grave" x="174" y="0" flags="0x1004"/>
    </TTGlyph>
    <TTGlyph name="underscore" xMin="72" yMin="-97" xMax="785" yMax="-52">
      <contour>
        <pt x="785" y="-97" on="1"/>
        <pt x="72" y="-97" on="1"/>
        <pt x="72" y="-52" on="1"/>
        <pt x="785" y="-52" on="1"/>
      </contour>
    </TTGlyph>
    <TTGlyph name="v" xMin="35" yMin="0" xMax="887" yMax="469">
      <contour>
        <pt x="643" y="469" on="1"/>
        <pt x="887" y="469" on="1"/>
        <pt x="887" y="424" on="1"/>
        <pt x="779" y="424" on="1"/>
        <pt x="622" y="0" on="1"/>
        <pt x="35" y="0" on="1"/>
        <pt x="35" y="45" on="1"/>
        <pt x="134" y="45" on="1"/>
        <pt x="134" y="424" on="1"/>
        <pt x="35" y="424" on="1"/>
        <pt x="35" y="469" on="1"/>
        <pt x="400" y="469" on="1"/>
        <pt x="400" y="424" on="1"/>
        <pt x="301" y="424" on="1"/>
        <pt x="301" y="45" on="1"/>
        <pt x="589" y="45" on="1"/>
        <pt x="729" y="424" on="1"/>
        <pt x="643" y="424" on="1"/>
      </contour>
    </TTGlyph>
    <TTGlyph name="w" xMin="35" yMin="0" xMax="1207" yMax="469">
      <contour>
        <pt x="1108" y="424" on="1"/>
        <pt x="1108" y="45" on="1"/>
        <pt x="1207" y="45" on="1"/>
        <pt x="1207" y="0" on="1"/>
        <pt x="35" y="0" on="1"/>
        <pt x="35" y="45" on="1"/>
        <pt x="134" y="45" on="1"/>
        <pt x="134" y="424" on="1"/>
        <pt x="35" y="424" on="1"/>
        <pt x="35" y="469" on="1"/>
        <pt x="401" y="469" on="1"/>
        <pt x="401" y="424" on="1"/>
        <pt x="301" y="424" on="1"/>
        <pt x="301" y="45" on="1"/>
        <pt x="599" y="45" on="1"/>
        <pt x="599" y="424" on="1"/>
        <pt x="500" y="424" on="1"/>
        <pt x="500" y="469" on="1"/>
        <pt x="743" y="469" on="1"/>
        <pt x="743" y="424" on="1"/>
        <pt x="644" y="424" on="1"/>
        <pt x="644" y="45" on="1"/>
        <pt x="941" y="45" on="1"/>
        <pt x="941" y="424" on="1"/>
        <pt x="842" y="424" on="1"/>
        <pt x="842" y="469" on="1"/>
        <pt x="1207" y="469" on="1"/>
        <pt x="1207" y="424" on="1"/>
      </contour>
    </TTGlyph>
    <TTGlyph name="x" xMin="25" yMin="0" xMax="803" yMax="469">
      <contour>
        <pt x="803" y="45" on="1"/>
        <pt x="803" y="0" on="1"/>
        <pt x="398" y="0" on="1"/>
        <pt x="398" y="45" on="1"/>
        <pt x="488" y="45" on="1"/>
        <pt x="333" y="215" on="1"/>
        <pt x="168" y="45" on="1"/>
        <pt x="269" y="45" on="1"/>
        <pt x="269" y="0" on="1"/>
        <pt x="25" y="0" on="1"/>
        <pt x="25" y="45" on="1"/>
        <pt x="106" y="45" on="1"/>
        <pt x="303" y="248" on="1"/>
        <pt x="142" y="424" on="1"/>
        <pt x="40" y="424" on="1"/>
        <pt x="40" y="469" on="1"/>
        <pt x="446" y="469" on="1"/>
        <pt x="446" y="424" on="1"/>
        <pt x="355" y="424" on="1"/>
        <pt x="501" y="265" on="1"/>
        <pt x="655" y="424" on="1"/>
        <pt x="546" y="424" on="1"/>
        <pt x="546" y="469" on="1"/>
        <pt x="791" y="469" on="1"/>
        <pt x="791" y="424" on="1"/>
        <pt x="718" y="424" on="1"/>
        <pt x="531" y="232" on="1"/>
        <pt x="702" y="45" on="1"/>
      </contour>
    </TTGlyph>
    <TTGlyph name="y" xMin="16" yMin="-226" xMax="860" yMax="469">
      <contour>
        <pt x="860" y="424" on="1"/>
        <pt x="761" y="424" on="1"/>
        <pt x="761" y="-226" on="1"/>
        <pt x="123" y="-226" on="1"/>
        <pt x="123" y="-104" on="1"/>
        <pt x="168" y="-104" on="1"/>
        <pt x="168" y="-181" on="1"/>
        <pt x="594" y="-181" on="1"/>
        <pt x="594" y="0" on="1"/>
        <pt x="123" y="0" on="1"/>
        <pt x="123" y="424" on="1"/>
        <pt x="16" y="424" on="1"/>
        <pt x="16" y="469" on="1"/>
        <pt x="275" y="469" on="1"/>
        <pt x="275" y="424" on="1"/>
        <pt x="168" y="424" on="1"/>
        <pt x="168" y="45" on="1"/>
        <pt x="594" y="45" on="1"/>
        <pt x="594" y="424" on="1"/>
        <pt x="495" y="424" on="1"/>
        <pt x="495" y="469" on="1"/>
        <pt x="860" y="469" on="1"/>
      </contour>
    </TTGlyph>
    <TTGlyph name="yacute" xMin="16" yMin="-226" xMax="860" yMax="710">
      <component glyphName="y" x="0" y="0" flags="0x1204"/>
      <component glyphName="acute" x="210" y="0" flags="0x1004"/>
    </TTGlyph>
    <TTGlyph name="ydieresis" xMin="16" yMin="-226" xMax="860" yMax="688">
      <component glyphName="y" x="0" y="0" flags="0x1204"/>
      <component glyphName="dieresis" x="136" y="0" flags="0x1004"/>
    </TTGlyph>
    <TTGlyph name="yen" xMin="34" yMin="0" xMax="968" yMax="695">
      <contour>
        <pt x="968" y="695" on="1"/>
        <pt x="968" y="650" on="1"/>
        <pt x="857" y="650" on="1"/>
        <pt x="655" y="419" on="1"/>
        <pt x="777" y="419" on="1"/>
        <pt x="777" y="374" on="1"/>
        <pt x="616" y="374" on="1"/>
        <pt x="585" y="339" on="1"/>
        <pt x="585" y="285" on="1"/>
        <pt x="777" y="285" on="1"/>
        <pt x="777" y="240" on="1"/>
        <pt x="585" y="240" on="1"/>
        <pt x="585" y="45" on="1"/>
        <pt x="684" y="45" on="1"/>
        <pt x="684" y="0" on="1"/>
        <pt x="319" y="0" on="1"/>
        <pt x="319" y="45" on="1"/>
        <pt x="418" y="45" on="1"/>
        <pt x="418" y="240" on="1"/>
        <pt x="226" y="240" on="1"/>
        <pt x="226" y="285" on="1"/>
        <pt x="418" y="285" on="1"/>
        <pt x="418" y="339" on="1"/>
        <pt x="388" y="374" on="1"/>
        <pt x="226" y="374" on="1"/>
        <pt x="226" y="419" on="1"/>
        <pt x="348" y="419" on="1"/>
        <pt x="146" y="650" on="1"/>
        <pt x="34" y="650" on="1"/>
        <pt x="34" y="695" on="1"/>
        <pt x="278" y="695" on="1"/>
        <pt x="278" y="650" on="1"/>
        <pt x="206" y="650" on="1"/>
        <pt x="451" y="370" on="1"/>
        <pt x="552" y="370" on="1"/>
        <pt x="797" y="650" on="1"/>
        <pt x="725" y="650" on="1"/>
        <pt x="725" y="695" on="1"/>
      </contour>
    </TTGlyph>
    <TTGlyph name="z" xMin="28" yMin="0" xMax="673" yMax="469">
      <contour>
        <pt x="614" y="122" on="1"/>
        <pt x="659" y="122" on="1"/>
        <pt x="659" y="0" on="1"/>
        <pt x="28" y="0" on="1"/>
        <pt x="408" y="424" on="1"/>
        <pt x="89" y="424" on="1"/>
        <pt x="89" y="347" on="1"/>
        <pt x="44" y="347" on="1"/>
        <pt x="44" y="469" on="1"/>
        <pt x="673" y="469" on="1"/>
        <pt x="294" y="45" on="1"/>
        <pt x="614" y="45" on="1"/>
      </contour>
    </TTGlyph>
    <TTGlyph name="zcaron" xMin="28" yMin="0" xMax="673" yMax="710">
      <component glyphName="z" x="0" y="0" flags="0x1204"/>
      <component glyphName="caron" x="106" y="0" flags="0x1004"/>
    </TTGlyph>
    <TTGlyph name="zero" xMin="66" yMin="0" xMax="882" yMax="695">
      <contour>
        <pt x="882" y="695" on="1"/>
        <pt x="882" y="0" on="1"/>
        <pt x="66" y="0" on="1"/>
        <pt x="66" y="695" on="1"/>
      </contour>
      <contour>
        <pt x="233" y="73" on="1"/>
        <pt x="813" y="650" on="1"/>
        <pt x="233" y="650" on="1"/>
      </contour>
      <contour>
        <pt x="837" y="611" on="1"/>
        <pt x="269" y="45" on="1"/>
        <pt x="837" y="45" on="1"/>
      </contour>
    </TTGlyph>
</ttFont>
